<?xml version="1.0" encoding="utf-8"?>
<!-- Generator: Adobe Illustrator 16.0.0, SVG Export Plug-In . SVG Version: 6.00 Build 0)  -->
<!DOCTYPE svg PUBLIC "-//W3C//DTD SVG 1.1//EN" "http://www.w3.org/Graphics/SVG/1.1/DTD/svg11.dtd">
<svg version="1.1" id="books" xmlns="http://www.w3.org/2000/svg" xmlns:xlink="http://www.w3.org/1999/xlink" x="0px" y="0px"
	 width="205.34px" height="130.264px" viewBox="0 0 205.34 130.264" enable-background="new 0 0 205.34 130.264"
	 xml:space="preserve">
<rect x="87.098" y="18.923" fill="#913C96" width="24.908" height="111.374"/>
<rect x="112.006" y="107.367" fill="#CCC246" width="86.832" height="22.896"/>
<rect x="112.006" y="100.672" fill="#9B9B9B" width="74.336" height="6.711"/>
<rect x="73.098" y="36.588" fill="#73964B" width="14.666" height="93.709"/>
<path fill="#71931D" d="M123.922,35.089c0,0-2.814-12.067,4.666-10.519c3.918,0.812,3.334,5.137,3.334,5.137
	s-4.021-16.235,1.75-16.825c6.521-0.666,6.916,11.688,6.916,11.688s-4.914-22.814,5.168-23.188c9.625-0.354,8,13.499,8,13.499
	s4.332-6.75,6.166-2.461c1.886,4.413-2.334,12.148-2.334,12.148s4.668-9.534,10.168-6.36s-0.668,16.879-0.668,16.879"/>
<rect x="14.667" y="56.15" fill="#CC2929" width="29.333" height="74.146"/>
<rect x="44" y="25.926" fill="#E2E2E2" width="29.334" height="104.371"/>
<rect x="112.006" y="86.406" fill="#934916" width="93.334" height="15.111"/>
<rect x="112.006" y="71.294" fill="#3D3D3D" width="80.582" height="15.111"/>
<rect y="15.922" fill="#52A8E2" width="14.667" height="114.375"/>
<rect x="14.839" y="63.088" fill="#DDD466" width="29.161" height="15.023"/>
<rect x="49.292" y="104.838" fill="#6D6D6D" width="18.75" height="20.04"/>
<rect x="87.098" y="56.15" fill="#7BAAAF" width="24.908" height="37.073"/>
<rect x="87.098" y="23.484" fill="#DDD466" width="24.908" height="8.438"/>
<rect x="119.006" y="107.362" fill="#BF4773" width="10.5" height="22.936"/>
<polygon fill="#3F2213" points="124.256,39.466 129.506,71.391 162.756,71.391 167.756,39.466 "/>
<rect x="121.506" y="32.549" fill="#683B28" width="49" height="9.251"/>
</svg>
