<?xml version="1.0" encoding="utf-8"?>
<!-- Generator: Adobe Illustrator 16.0.0, SVG Export Plug-In . SVG Version: 6.00 Build 0)  -->
<!DOCTYPE svg PUBLIC "-//W3C//DTD SVG 1.1//EN" "http://www.w3.org/Graphics/SVG/1.1/DTD/svg11.dtd">
<svg version="1.1" xmlns="http://www.w3.org/2000/svg" xmlns:xlink="http://www.w3.org/1999/xlink" x="0px" y="0px"
	 width="140.005px" height="74px" viewBox="0 0 140.005 74" enable-background="new 0 0 140.005 74" xml:space="preserve">
<g id="Layer_1" display="none">
	<g id="fish" display="inline">
		<path opacity="0.7" fill="#A7EAE6" d="M118.5,45.57c0-18.458-8.595-34.897-21.988-45.57H23.988C10.595,10.673,2,27.112,2,45.57
			c0,23.352,13.746,43.482,33.583,52.771v6.708h49.333v-6.708C104.753,89.054,118.5,68.922,118.5,45.57z"/>
		<path fill="#D87A1D" d="M93.546,51.086l-7.207,4.19c-2.544-8.5-12.403-8.504-12.403-8.504s-14.027-0.178-14.027,13.313
			c0,11.78,13.513,10.996,13.513,10.996s9.507-0.188,12.571-6.852l7.554,4.855V51.086z"/>
		<circle fill="#FFFFFF" cx="39.903" cy="44.14" r="3.689"/>
		<circle fill="#FFFFFF" cx="47.282" cy="52.524" r="3.689"/>
		<circle fill="#FFFFFF" cx="47.282" cy="33.335" r="3.689"/>
		<circle fill="#FFFFFF" cx="39.903" cy="21.913" r="3.689"/>
	</g>
</g>
<g id="Layer_2">
	<g>
		<polygon fill-rule="evenodd" clip-rule="evenodd" fill="#4BA358" points="126.309,7.765 140.005,62.846 78.672,65.451 
			79.872,69.002 62.708,70.846 62.708,67.513 2,71.513 7.339,15.591 29.548,9.467 68,15.591 104.339,4.126 		"/>
		<g>
			<path fill="#D6D6D6" d="M117.25,2.862c0,0-21.861-9.209-51.114,5.412C35.132-2.13,15.218,10.002,15.218,10.002L8.926,65.451
				c0,0,44.103-19.023,61.071-4.273c14.75-16.97,61.205-4.283,61.205-4.283L117.25,2.862z"/>
			<path fill="#808285" d="M114.674,6.895l3.089,13.334c0,0-30.62-6.559-50.126,5.297l-0.914-13.059
				C95.976-2.155,114.674,6.895,114.674,6.895z"/>
			<path fill="#808285" d="M93.607,22.834l1.549,13.822c0,0-12.059-0.367-26.237,6.166l-0.991-13.155
				C80.042,21.924,93.607,22.834,93.607,22.834z"/>
		</g>
	</g>
</g>
</svg>
