<?xml version="1.0" encoding="utf-8"?>
<!-- Generator: Adobe Illustrator 16.0.0, SVG Export Plug-In . SVG Version: 6.00 Build 0)  -->
<!DOCTYPE svg PUBLIC "-//W3C//DTD SVG 1.1//EN" "http://www.w3.org/Graphics/SVG/1.1/DTD/svg11.dtd">
<svg version="1.1" id="chair" xmlns="http://www.w3.org/2000/svg" xmlns:xlink="http://www.w3.org/1999/xlink" x="0px" y="0px"
	 width="217.229px" height="228.473px" viewBox="0 0 217.229 228.473" enable-background="new 0 0 217.229 228.473"
	 xml:space="preserve">
<path fill="#DDBB92" d="M197.229,0H20C8.954,0,0,8.955,0,20v188.473c0,11.047,8.954,20,20,20h177.229c11.046,0,20-8.953,20-20V20
	C217.229,8.955,208.275,0,197.229,0z M51.495,170.082c-8.303,0-15.031-6.73-15.031-15.031s6.729-15.031,15.031-15.031
	c8.301,0,15.03,6.73,15.03,15.031S59.796,170.082,51.495,170.082z M51.495,120.092c-8.303,0-15.031-6.729-15.031-15.029
	c0-8.303,6.729-15.032,15.031-15.032c8.301,0,15.03,6.729,15.03,15.032C66.526,113.363,59.796,120.092,51.495,120.092z
	 M51.495,68.082c-8.303,0-15.031-6.73-15.031-15.031S43.193,38.02,51.495,38.02c8.301,0,15.03,6.73,15.03,15.031
	S59.796,68.082,51.495,68.082z M108.328,170.082c-8.303,0-15.03-6.73-15.03-15.031s6.729-15.031,15.03-15.031
	c8.301,0,15.03,6.73,15.03,15.031S116.63,170.082,108.328,170.082z M108.328,120.092c-8.303,0-15.03-6.729-15.03-15.029
	c0-8.303,6.729-15.032,15.03-15.032c8.301,0,15.03,6.729,15.03,15.032C123.359,113.363,116.63,120.092,108.328,120.092z
	 M108.328,68.082c-8.303,0-15.03-6.73-15.03-15.031s6.729-15.031,15.03-15.031c8.301,0,15.03,6.73,15.03,15.031
	S116.63,68.082,108.328,68.082z M165.734,170.082c-8.302,0-15.03-6.73-15.03-15.031s6.729-15.031,15.03-15.031
	c8.303,0,15.031,6.73,15.031,15.031S174.036,170.082,165.734,170.082z M165.734,120.092c-8.302,0-15.03-6.729-15.03-15.029
	c0-8.303,6.729-15.032,15.03-15.032c8.303,0,15.031,6.729,15.031,15.032C180.766,113.363,174.036,120.092,165.734,120.092z
	 M165.734,68.082c-8.302,0-15.03-6.73-15.03-15.031s6.729-15.031,15.03-15.031c8.303,0,15.031,6.73,15.031,15.031
	S174.036,68.082,165.734,68.082z"/>
</svg>
