<?xml version="1.0" encoding="utf-8"?>
<!-- Generator: Adobe Illustrator 16.0.0, SVG Export Plug-In . SVG Version: 6.00 Build 0)  -->
<!DOCTYPE svg PUBLIC "-//W3C//DTD SVG 1.1//EN" "http://www.w3.org/Graphics/SVG/1.1/DTD/svg11.dtd">
<svg version="1.1" xmlns="http://www.w3.org/2000/svg" xmlns:xlink="http://www.w3.org/1999/xlink" x="0px" y="0px" width="1500px"
	 height="1177.989px" viewBox="0 0 1500 1177.989" enable-background="new 0 0 1500 1177.989" xml:space="preserve">
<g id="Layer_2">
	<rect fill="#D6EDEA" width="1500" height="1177.989"/>
	<rect x="1487.93" y="-1129.344" fill="#D6EDEA" width="1280" height="1024"/>
	<g id="Layer_4" display="none">
		<circle display="inline" fill="#8BC125" cx="216.872" cy="-648.126" r="62.615"/>
		<circle display="inline" fill="#8BC125" cx="216.872" cy="-758.376" r="62.615"/>
	</g>
	<g id="Layer_8">
		
			<rect x="1364.886" y="615.046" fill="#FFFFFF" stroke="#775B45" stroke-width="12.7111" stroke-miterlimit="10" width="181.694" height="173.336"/>
		
			<rect x="1175.641" y="524.404" fill="#FFFFFF" stroke="#775B45" stroke-width="12.7111" stroke-miterlimit="10" width="141.694" height="173.336"/>
		
			<ellipse fill="#FFFFFF" stroke="#775B45" stroke-width="12.7111" stroke-miterlimit="10" cx="1407.932" cy="437.112" rx="68.938" ry="92.088"/>
	</g>
	<g id="Layer_5">
		<g id="Layer_6">
			<path fill="#71931D" d="M605.583,874.127c0,0-2.815-12.068,4.667-10.519c3.917,0.812,3.333,5.137,3.333,5.137
				s-4.021-16.236,1.75-16.825c6.521-0.666,6.917,11.688,6.917,11.688s-4.914-22.814,5.167-23.187c9.625-0.355,8,13.499,8,13.499
				s4.333-6.75,6.166-2.461c1.886,4.413-2.333,12.148-2.333,12.148s4.667-9.534,10.167-6.36s-0.667,16.879-0.667,16.879"/>
			<rect x="-55.957" y="957.223" fill="#C64934" width="1566" height="120.81"/>
			<rect x="-56.333" y="1077.214" fill="#8C3625" width="1566" height="31.412"/>
			<rect x="496.328" y="895.188" fill="#CC2929" width="29.333" height="74.147"/>
			<rect x="525.662" y="864.964" fill="#E2E2E2" width="29.333" height="104.371"/>
			<rect x="593.668" y="946.404" fill="#CCC246" width="86.832" height="22.896"/>
			<rect x="593.668" y="939.71" fill="#9B9B9B" width="74.334" height="6.711"/>
			<rect x="593.667" y="925.443" fill="#934916" width="93.335" height="15.111"/>
			<rect x="593.667" y="910.332" fill="#3D3D3D" width="80.583" height="15.111"/>
			<rect x="554.758" y="875.626" fill="#73964B" width="14.667" height="93.709"/>
			<rect x="568.759" y="857.961" fill="#913C96" width="24.909" height="111.374"/>
			<rect x="481.661" y="854.96" fill="#52A8E2" width="14.667" height="114.375"/>
			<path fill="#FFFFFF" d="M238.606,1013.742c1.638,7.84-3.39,15.521-11.228,17.159l0,0c-7.84,1.638-14.379-3.108-17.159-11.228
				l-6.511-13.544c-1.638-7.838,3.389-15.521,11.229-17.159l0,0c7.838-1.638,12.831,3.572,17.158,11.228L238.606,1013.742z"/>
			<rect x="496.5" y="902.126" fill="#DDD466" width="29.162" height="15.023"/>
			<rect x="530.953" y="943.876" fill="#6D6D6D" width="18.75" height="20.04"/>
			<rect x="568.759" y="895.188" fill="#7BAAAF" width="24.909" height="37.073"/>
			<rect x="568.759" y="862.521" fill="#DDD466" width="24.909" height="8.439"/>
			<rect x="600.667" y="946.399" fill="#BF4773" width="10.5" height="22.936"/>
			<polygon fill="#3F2213" points="605.917,878.504 611.167,910.429 644.417,910.429 649.417,878.504 			"/>
			<rect x="603.167" y="871.587" fill="#683B28" width="49" height="9.251"/>
			<ellipse fill="#663428" cx="300.333" cy="986.342" rx="40.333" ry="12.974"/>
			<path opacity="0.7" fill="#A7EAE6" d="M824.907,944.496c0-18.458-8.595-34.897-21.988-45.57h-72.523
				c-13.394,10.673-21.988,27.112-21.988,45.57c0,23.352,13.746,43.482,33.583,52.771v6.708h49.333v-6.708
				C811.16,987.979,824.907,967.848,824.907,944.496z"/>
			<path fill="#D87A1D" d="M799.953,950.012l-7.207,4.19c-2.544-8.5-12.403-8.504-12.403-8.504s-14.027-0.178-14.027,13.313
				c0,11.78,13.513,10.996,13.513,10.996s9.507-0.188,12.571-6.852l7.554,4.855V950.012z"/>
			<circle fill="#FFFFFF" cx="746.311" cy="943.065" r="3.689"/>
			<circle fill="#FFFFFF" cx="753.689" cy="951.45" r="3.689"/>
			<circle fill="#FFFFFF" cx="753.689" cy="932.261" r="3.689"/>
			<circle fill="#FFFFFF" cx="746.311" cy="920.839" r="3.689"/>
			<path fill="none" stroke="#FFFFFF" stroke-width="3" stroke-miterlimit="10" d="M148.167,984.536"/>
			<path fill="none" stroke="#FFFFFF" stroke-width="3" stroke-miterlimit="10" d="M213,994.626c0,0-2.456-16.322-13.667-16.322
				c0,0-12.833,2.498-27,1.655c-8.979-0.534-30.887-1.26-37.813-11.707c-9.333-14.076-43.02-2.726-43.02-2.726"/>
			<g>
				
					<rect x="423.866" y="866.256" transform="matrix(0.9761 -0.2172 0.2172 0.9761 -178.8566 113.3944)" fill="#515151" width="4.999" height="8"/>
				<polygon fill="#515151" points="437.406,938.629 443.237,946.41 445.214,936.892 443.501,929.191 435.692,930.929 				"/>
				
					<rect x="429.897" y="870.355" transform="matrix(0.9761 -0.2172 0.2172 0.9761 -186.093 115.8358)" fill="#E8D885" width="7.999" height="68.221"/>
				
					<rect x="432.256" y="877.422" transform="matrix(0.9761 -0.2174 0.2174 0.9761 -183.2087 115.7964)" fill="#515151" width="5" height="26.528"/>
			</g>
			<g>
				
					<rect x="440.027" y="932.749" transform="matrix(-0.9353 -0.3538 0.3538 -0.9353 525.0355 1969.4741)" fill="#515151" width="4.999" height="8.001"/>
				<polygon fill="#515151" points="470.811,873.529 470.204,863.825 463.331,870.698 461.886,878.586 466.665,880.395 				"/>
				
					<rect x="451.002" y="869.907" transform="matrix(-0.9352 -0.354 0.354 -0.9352 560.5176 1910.5652)" fill="#E8D885" width="7.997" height="68.22"/>
				
					<rect x="444.221" y="901.802" transform="matrix(-0.9353 -0.3539 0.3539 -0.9353 540.7081 1929.0035)" fill="#515151" width="5" height="26.527"/>
			</g>
			<g>
				
					<rect x="439.271" y="844.769" transform="matrix(0.9991 -0.0412 0.0412 0.9991 -34.6143 18.9332)" fill="#515151" width="4.998" height="7.999"/>
				<polygon fill="#515151" points="440.554,918.016 444.919,926.705 448.546,917.686 448.222,909.805 440.228,910.133 				"/>
				
					<rect x="439.138" y="849.659" transform="matrix(0.9991 -0.0413 0.0413 0.9991 -36.0912 19.0388)" fill="#E8D885" width="7.999" height="68.221"/>
				
					<rect x="443.918" y="857.095" transform="matrix(0.9992 -0.0412 0.0412 0.9992 -35.4866 19.1354)" fill="#515151" width="5" height="26.528"/>
			</g>
			<rect x="417.621" y="894.733" fill="#97AED3" width="51.5" height="76.365"/>
			<g>
				<path fill="#FFFFFF" d="M325.944,924.2v51.334c0,5.522-4.477,10-10,10h-33.333c-5.523,0-10-4.478-10-10V924.2"/>
				<path fill="none" stroke="#FFFFFF" stroke-width="6" stroke-miterlimit="10" d="M338.667,957.034c0,5.522-4.477,10-10,10H319
					c-5.523,0-10-4.478-10-10v-4.333c0-5.522,4.477-10,10-10h9.667c5.523,0,10,4.478,10,10V957.034z"/>
			</g>
			<ellipse fill="#663428" cx="1435.733" cy="974.204" rx="40.333" ry="12.974"/>
			<g>
				<path fill="#FFFFFF" d="M1410.122,912.062v51.334c0,5.522,4.477,10,10,10h33.334c5.522,0,10-4.478,10-10v-51.334"/>
				<path fill="none" stroke="#FFFFFF" stroke-width="6" stroke-miterlimit="10" d="M1397.399,944.896c0,5.522,4.478,10,10,10h9.667
					c5.522,0,10-4.478,10-10v-4.333c0-5.522-4.478-10-10-10h-9.667c-5.522,0-10,4.478-10,10V944.896z"/>
			</g>
			<path fill="#4C4C4C" d="M1254.958,990.614c-7.384-3.026-18.851-4.974-31.739-4.974s-24.356,1.947-31.74,4.974h-8.594v8
				c0,7.165,18.059,12.974,40.334,12.974s40.333-5.809,40.333-12.974v-8H1254.958z"/>
			<ellipse fill="#727272" cx="1223.218" cy="990.614" rx="40.333" ry="12.974"/>
			<circle fill="#E2DF79" cx="1175.641" cy="844.668" r="13.911"/>
			<path fill="#727272" d="M1213.043,811.063l1.472-2.498c2.888-4.902,4.49-7.729-2.669-12.645
				c-6.84-4.697-11.215-1.254-14.102,3.647l-2.735,4.644c-11.339-3.771-24.158,0.728-30.47,11.439l-15.729,17.553l50.871,29.424
				l9.494-20.682c3.752-6.367,5.536-14.761,3.971-21.664c8.323,7.544,13.062,15.647,13.062,22.864
				c0,10.797-3.394,140.464-3.428,141.234l6.992,0.311c0.141-3.148,3.436-130.593,3.436-141.545
				C1233.208,832.428,1225.952,821.011,1213.043,811.063z"/>
		</g>
		<polygon fill="#D6D6D6" points="-61.315,999.315 -69.881,1045.638 185.927,1045.638 176.492,999.315 		"/>
		<g id="Layer_7" display="none">
			<rect x="1322" y="399.333" display="inline" fill="#FFFFFF" width="356" height="225.334"/>
			
				<rect x="-18.216" y="270.577" transform="matrix(0.9785 0.2061 -0.2061 0.9785 65.1288 3.218)" display="inline" fill="#FFFFFF" stroke="#494949" stroke-width="12" stroke-miterlimit="10" width="70.667" height="87.334"/>
			<rect x="1322" y="399.333" display="inline" fill="#BF3D3D" width="356" height="70.665"/>
			<circle display="inline" fill="#EFEA9C" cx="1491.333" cy="420.106" r="6"/>
		</g>
		<g>
			<path d="M240.614,656.704H-138.58c-6.75,0-12.222,5.472-12.222,12.222v253.929c0,6.748,5.472,12.221,12.222,12.221h379.194
				c6.749,0,12.221-5.473,12.221-12.221V668.926C252.835,662.176,247.363,656.704,240.614,656.704z M238.916,885.172h-375.46
				V670.623h375.46V885.172z"/>
			<path fill="#777777" d="M-150.802,898.648v24.782c0,6.749,5.472,12.221,12.222,12.221h379.194
				c6.749,0,12.221-5.472,12.221-12.221v-24.782H-150.802z"/>
			<g>
				<rect x="-14.333" y="980.802" fill="#666666" width="130.698" height="3.734"/>
				<polygon fill="#AAAAAA" points="116.365,980.802 -13.993,980.802 3.32,965.526 98.713,965.526 				"/>
				<polygon fill="#888888" points="98.713,965.526 3.32,965.526 7.055,935.651 95.318,935.651 				"/>
			</g>
			<circle fill="#666666" cx="51.526" cy="917.999" r="9.166"/>
			<rect x="-136.544" y="670.623" fill="#C7FAFF" width="375.46" height="214.549"/>
		</g>
		<path fill="#DDBB92" d="M140.43,973.164H-36.799c-11.046,0-20,8.955-20,20v188.473c0,11.047,8.954,20,20,20H140.43
			c11.046,0,20-8.953,20-20V993.164C160.43,982.119,151.476,973.164,140.43,973.164z M-5.305,1143.246
			c-8.301,0-15.031-6.73-15.031-15.031s6.729-15.031,15.031-15.031c8.302,0,15.032,6.73,15.032,15.031
			S2.997,1143.246-5.305,1143.246z M-5.305,1093.256c-8.301,0-15.031-6.729-15.031-15.029c0-8.303,6.729-15.033,15.031-15.033
			c8.302,0,15.032,6.73,15.032,15.033C9.727,1086.527,2.997,1093.256-5.305,1093.256z M-5.305,1041.246
			c-8.301,0-15.031-6.73-15.031-15.031s6.729-15.031,15.031-15.031c8.302,0,15.032,6.73,15.032,15.031
			S2.997,1041.246-5.305,1041.246z M51.529,1143.246c-8.301,0-15.031-6.73-15.031-15.031s6.729-15.031,15.031-15.031
			c8.302,0,15.031,6.73,15.031,15.031S59.831,1143.246,51.529,1143.246z M51.529,1093.256c-8.301,0-15.031-6.729-15.031-15.029
			c0-8.303,6.729-15.033,15.031-15.033c8.302,0,15.031,6.73,15.031,15.033C66.56,1086.527,59.831,1093.256,51.529,1093.256z
			 M51.529,1041.246c-8.301,0-15.031-6.73-15.031-15.031s6.729-15.031,15.031-15.031c8.302,0,15.031,6.73,15.031,15.031
			S59.831,1041.246,51.529,1041.246z M108.935,1143.246c-8.301,0-15.031-6.73-15.031-15.031s6.73-15.031,15.031-15.031
			c8.302,0,15.031,6.73,15.031,15.031S117.237,1143.246,108.935,1143.246z M108.935,1093.256c-8.301,0-15.031-6.729-15.031-15.029
			c0-8.303,6.73-15.033,15.031-15.033c8.302,0,15.031,6.73,15.031,15.033C123.966,1086.527,117.237,1093.256,108.935,1093.256z
			 M108.935,1041.246c-8.301,0-15.031-6.73-15.031-15.031s6.73-15.031,15.031-15.031c8.302,0,15.031,6.73,15.031,15.031
			S117.237,1041.246,108.935,1041.246z"/>
		<polygon fill="#D6D6D6" points="369.171,987.062 360.605,1033.385 453.605,1033.385 444.171,987.062 		"/>
		<polygon fill="#EAE6B5" points="297.608,1008.224 289.043,1064.126 367,1064.126 372.608,1008.224 		"/>
		<polygon fill="#FFFFFF" points="391.099,1009.872 387.078,1056.808 479.637,1047.765 465.743,1002.58 		"/>
		<polygon fill="#EAE6B5" points="1384.005,1010.742 1375.439,1066.645 1453.396,1066.645 1459.005,1010.742 		"/>
		<polygon fill="#FFFFFF" points="1341.414,995.66 1321.666,1048.198 1404.148,1046.9 1407.932,994.614 		"/>
		<polygon fill-rule="evenodd" clip-rule="evenodd" fill="#4BA358" points="661.223,993.415 674.92,1048.496 613.587,1051.101 
			614.786,1054.652 597.623,1056.496 597.623,1053.163 536.915,1057.163 542.253,1001.241 564.463,995.117 602.915,1001.241 
			639.253,989.776 		"/>
		
			<rect x="178.872" y="915.079" transform="matrix(0.9792 0.203 -0.203 0.9792 193.1763 -20.2943)" fill="#EFE492" width="33.335" height="33.335"/>
		
			<rect x="138.772" y="893.137" transform="matrix(0.9979 0.0652 -0.0652 0.9979 59.6345 -8.1971)" fill="#EFE492" width="33.335" height="33.336"/>
		
			<rect x="198.247" y="662.969" transform="matrix(0.9979 0.0652 -0.0652 0.9979 44.7579 -12.5634)" fill="#EFE492" width="33.335" height="33.336"/>
		<path fill-rule="evenodd" clip-rule="evenodd" fill="#E9E9E9" d="M1114.731,991.504H873.259l-31.771,47.189
			c0,7.018-0.155,12.708,12.467,12.708h285.295c9.5,0,7.254-12.708,7.254-12.708L1114.731,991.504z"/>
		<g>
			<path fill-rule="evenodd" clip-rule="evenodd" fill="#3D3D3D" d="M997.173,991.504H873.259V835.823
				c0-4.681,3.794-8.474,8.474-8.474h115.44h109.087c4.68,0,8.472,3.793,8.472,8.474v155.681H997.173z"/>
			<path fill-rule="evenodd" clip-rule="evenodd" fill="#E9E9E9" d="M997.713,829.57c1.099,0,1.99,0.89,1.99,1.987
				c0,1.099-0.892,1.989-1.99,1.989c-1.098,0-1.988-0.891-1.988-1.989C995.725,830.46,996.615,829.57,997.713,829.57z"/>
			<path fill-rule="evenodd" clip-rule="evenodd" fill="#777777" d="M879.613,983.031V835.823h228.766v147.208H879.613z"/>
			<path fill-rule="evenodd" clip-rule="evenodd" fill="#B3B2B2" d="M1015.182,1038.693c0,2.339-1.939,4.236-4.331,4.236h-33.708
				c-2.391,0-4.33-1.897-4.33-4.236H1015.182z"/>
		</g>
		<path fill-rule="evenodd" clip-rule="evenodd" fill="#E9E9E9" d="M1111.014,1035.095"/>
		<polyline fill-rule="evenodd" clip-rule="evenodd" fill="#B3B2B2" points="877.94,997.923 856.863,1030.015 1131,1030.015 
			1112.342,998.673 		"/>
		<g>
			<path fill="#D6D6D6" d="M652.165,988.512c0,0-21.861-9.209-51.114,5.412c-31.004-10.404-50.918,1.729-50.918,1.729l-6.292,55.448
				c0,0,44.103-19.023,61.071-4.273c14.75-16.97,61.205-4.283,61.205-4.283L652.165,988.512z"/>
			<path fill="#808285" d="M649.589,992.545l3.089,13.334c0,0-30.62-6.559-50.126,5.297l-0.914-13.059
				C630.891,983.495,649.589,992.545,649.589,992.545z"/>
			<path fill="#808285" d="M628.521,1008.484l1.549,13.822c0,0-12.059-0.367-26.237,6.166l-0.991-13.155
				C614.957,1007.574,628.521,1008.484,628.521,1008.484z"/>
		</g>
		<polygon fill="#EFE492" points="1509.211,1001.319 1476.066,999.788 1482.738,973.035 1515.885,974.566 		"/>
		<polygon fill="#EFE492" points="1338.191,1030.279 1305.534,1038.224 1298.245,1012.531 1330.904,1004.588 		"/>
		<polygon fill="#EFE492" points="1299.525,1057.072 1266.868,1065.017 1259.579,1039.324 1292.238,1031.381 		"/>
	</g>
</g>
<g id="Layer_1">
	<path fill="#95CFA2" d="M-498.055-420.471c0,3.428-3.52,6.206-7.861,6.206h-258.707c-4.34,0-7.859-2.778-7.859-6.206v-77.587
		c0-3.428,3.52-6.207,7.859-6.207h258.707c4.342,0,7.861,2.779,7.861,6.207V-420.471z"/>
	<g>
		<g opacity="0.75">
			<text transform="matrix(1 0 0 1 482.6367 122.502)" font-family="'Montserrat-Bold'" font-size="65">CLOSE YOUR TAGS</text>
		</g>
		<g>
			<text transform="matrix(1 0 0 1 479.6367 116.502)" fill="#E92600" font-family="'Montserrat-Bold'" font-size="65">CLOSE YOUR TAGS</text>
		</g>
	</g>
	<text transform="matrix(1 0 0 1 1911.6221 -741.1943)" fill="#444444" font-family="'VarelaRound-Regular'" font-size="35">YOU ARE A NOOB</text>
	<text transform="matrix(1 0 0 1 1911.6221 -670.0073)"><tspan x="0" y="0" fill="#444444" font-family="'VarelaRound-Regular'" font-size="35">It took you forever to close your tags!</tspan><tspan x="0" y="42" fill="#444444" font-family="'VarelaRound-Regular'" font-size="35">Get more practice.</tspan></text>
	<text transform="matrix(1 0 0 1 1911.6221 -461.1943)" fill="#444444" font-family="'VarelaRound-Regular'" font-size="35">YOU ARE A DEV NINJA</text>
	<text transform="matrix(1 0 0 1 1911.6221 -390.0068)"><tspan x="0" y="0" fill="#444444" font-family="'VarelaRound-Regular'" font-size="35">It took you forever to close your tags!</tspan><tspan x="0" y="42" fill="#444444" font-family="'VarelaRound-Regular'" font-size="35">Get more practice.</tspan></text>
	<text transform="matrix(1 0 0 1 587.687 1148.3525)" fill="#444444" font-family="'VarelaRound-Regular'" font-size="15">CREATED BY ANNA, HAZEL &amp; SOWJANYA</text>
	<g>
		<path fill="#3EC69F" d="M661.375,319.497c0,3.428-3.52,6.207-7.86,6.207H498.671c-4.341,0-7.86-2.779-7.86-6.207V241.91
			c0-3.428,3.52-6.207,7.86-6.207h154.844c4.341,0,7.86,2.779,7.86,6.207V319.497z"/>
		<path fill="#3EC69F" d="M470.811,319.497c0,3.428-3.52,6.207-7.86,6.207H308.106c-4.341,0-7.86-2.779-7.86-6.207V241.91
			c0-3.428,3.52-6.207,7.86-6.207H462.95c4.341,0,7.86,2.779,7.86,6.207V319.497z"/>
		<path fill="#3EC69F" d="M470.811,429.497c0,3.428-3.52,6.207-7.86,6.207H308.106c-4.341,0-7.86-2.779-7.86-6.207v-77.586
			c0-3.428,3.52-6.207,7.86-6.207H462.95c4.341,0,7.86,2.779,7.86,6.207V429.497z"/>
		<path fill="#3EC69F" d="M661.375,429.497c0,3.428-3.52,6.207-7.86,6.207H498.671c-4.341,0-7.86-2.779-7.86-6.207v-77.586
			c0-3.428,3.52-6.207,7.86-6.207h154.844c4.341,0,7.86,2.779,7.86,6.207V429.497z"/>
		<path fill="#3EC69F" d="M851.939,319.497c0,3.428-3.52,6.207-7.86,6.207H689.235c-4.341,0-7.86-2.779-7.86-6.207V241.91
			c0-3.428,3.52-6.207,7.86-6.207h154.844c4.341,0,7.86,2.779,7.86,6.207V319.497z"/>
		<path fill="#3EC69F" d="M850.771,429.497c0,3.428-3.52,6.207-7.86,6.207H688.067c-4.341,0-7.86-2.779-7.86-6.207v-77.586
			c0-3.428,3.52-6.207,7.86-6.207h154.844c4.341,0,7.86,2.779,7.86,6.207V429.497z"/>
		<path fill="#3EC69F" d="M1042.504,319.497c0,3.428-3.52,6.207-7.86,6.207H879.8c-4.341,0-7.86-2.779-7.86-6.207V241.91
			c0-3.428,3.52-6.207,7.86-6.207h154.844c4.341,0,7.86,2.779,7.86,6.207V319.497z"/>
		<path fill="#3EC69F" d="M1042.504,429.497c0,3.428-3.52,6.207-7.86,6.207H879.8c-4.341,0-7.86-2.779-7.86-6.207v-77.586
			c0-3.428,3.52-6.207,7.86-6.207h154.844c4.341,0,7.86,2.779,7.86,6.207V429.497z"/>
		<path fill="#3EC69F" d="M470.811,540.497c0,3.428-3.52,6.207-7.86,6.207H308.106c-4.341,0-7.86-2.779-7.86-6.207v-77.586
			c0-3.428,3.52-6.207,7.86-6.207H462.95c4.341,0,7.86,2.779,7.86,6.207V540.497z"/>
		<path fill="#3EC69F" d="M661.375,540.497c0,3.428-3.52,6.207-7.86,6.207H498.671c-4.341,0-7.86-2.779-7.86-6.207v-77.586
			c0-3.428,3.52-6.207,7.86-6.207h154.844c4.341,0,7.86,2.779,7.86,6.207V540.497z"/>
		<path fill="#3EC69F" d="M851.939,540.497c0,3.428-3.52,6.207-7.86,6.207H689.235c-4.341,0-7.86-2.779-7.86-6.207v-77.586
			c0-3.428,3.52-6.207,7.86-6.207h154.844c4.341,0,7.86,2.779,7.86,6.207V540.497z"/>
		<path fill="#3EC69F" d="M1042.504,540.497c0,3.428-3.52,6.207-7.86,6.207H879.8c-4.341,0-7.86-2.779-7.86-6.207v-77.586
			c0-3.428,3.52-6.207,7.86-6.207h154.844c4.341,0,7.86,2.779,7.86,6.207V540.497z"/>
		<path fill="#3EC69F" d="M470.811,650.497c0,3.428-3.52,6.207-7.86,6.207H308.106c-4.341,0-7.86-2.779-7.86-6.207v-77.586
			c0-3.428,3.52-6.207,7.86-6.207H462.95c4.341,0,7.86,2.779,7.86,6.207V650.497z"/>
		<path fill="#3EC69F" d="M661.375,650.497c0,3.428-3.52,6.207-7.86,6.207H498.671c-4.341,0-7.86-2.779-7.86-6.207v-77.586
			c0-3.428,3.52-6.207,7.86-6.207h154.844c4.341,0,7.86,2.779,7.86,6.207V650.497z"/>
		<path fill="#3EC69F" d="M851.939,650.497c0,3.428-3.52,6.207-7.86,6.207H689.235c-4.341,0-7.86-2.779-7.86-6.207v-77.586
			c0-3.428,3.52-6.207,7.86-6.207h154.844c4.341,0,7.86,2.779,7.86,6.207V650.497z"/>
		<path fill="#3EC69F" d="M1042.504,650.497c0,3.428-3.52,6.207-7.86,6.207H879.8c-4.341,0-7.86-2.779-7.86-6.207v-77.586
			c0-3.428,3.52-6.207,7.86-6.207h154.844c4.341,0,7.86,2.779,7.86,6.207V650.497z"/>
		<text transform="matrix(1 0 0 1 726.543 402.5557)" fill="#FFFFFF" font-family="'VarelaRound-Regular'" font-size="35">&lt;h1&gt;</text>
		<text transform="matrix(1 0 0 1 334.543 622.5557)" fill="#FFFFFF" font-family="'VarelaRound-Regular'" font-size="35">&lt;/h1&gt;</text>
		<text transform="matrix(1 0 0 1 727.043 511.5557)" fill="#FFFFFF" font-family="'VarelaRound-Regular'" font-size="35">&lt;/p&gt;</text>
		<text transform="matrix(1 0 0 1 541.043 290.5557)" fill="#FFFFFF" font-family="'VarelaRound-Regular'" font-size="35">&lt;p&gt;</text>
		<text transform="matrix(1 0 0 1 352.043 514.2031)" fill="#FFFFFF" font-family="'VarelaRound-Regular'" font-size="35">&lt;a&gt;</text>
		<text transform="matrix(1 0 0 1 921.043 290.5557)" fill="#FFFFFF" font-family="'VarelaRound-Regular'" font-size="35">&lt;/a&gt;</text>
		<text transform="matrix(1 0 0 1 330.543 290.5557)" fill="#FFFFFF" font-family="'VarelaRound-Regular'" font-size="30">&lt;body&gt;</text>
		<text transform="matrix(1 0 0 1 330.543 400.5557)" fill="#FFFFFF" font-family="'VarelaRound-Regular'" font-size="25">&lt;header&gt;</text>
		<text transform="matrix(1 0 0 1 705.543 620.5557)" fill="#FFFFFF" font-family="'VarelaRound-Regular'" font-size="25">&lt;/header&gt;</text>
		<text transform="matrix(1 0 0 1 520.543 511.2031)" fill="#FFFFFF" font-family="'VarelaRound-Regular'" font-size="25">&lt;footer&gt;</text>
		<text transform="matrix(1 0 0 1 713.543 289.5557)" fill="#FFFFFF" font-family="'VarelaRound-Regular'" font-size="25">&lt;/footer&gt;</text>
		<text transform="matrix(1 0 0 1 895.543 511.2031)" fill="#FFFFFF" font-family="'VarelaRound-Regular'" font-size="30">&lt;/body&gt;</text>
		<text transform="matrix(1 0 0 1 902.543 399.5557)" fill="#FFFFFF" font-family="'VarelaRound-Regular'" font-size="30">&lt;/head&gt;</text>
		<text transform="matrix(1 0 0 1 520.543 622.5557)" fill="#FFFFFF" font-family="'VarelaRound-Regular'" font-size="30">&lt;head&gt;</text>
		<text transform="matrix(1 0 0 1 902.543 622.5557)" fill="#FFFFFF" font-family="'VarelaRound-Regular'" font-size="30">&lt;script&gt;</text>
		<path fill="#3EC69F" d="M1232.068,319.497c0,3.428-3.52,6.207-7.86,6.207h-154.844c-4.341,0-7.86-2.779-7.86-6.207V241.91
			c0-3.428,3.52-6.207,7.86-6.207h154.844c4.341,0,7.86,2.779,7.86,6.207V319.497z"/>
		<path fill="#3EC69F" d="M1232.068,429.497c0,3.428-3.52,6.207-7.86,6.207h-154.844c-4.341,0-7.86-2.779-7.86-6.207v-77.586
			c0-3.428,3.52-6.207,7.86-6.207h154.844c4.341,0,7.86,2.779,7.86,6.207V429.497z"/>
		<path fill="#3EC69F" d="M1232.068,540.497c0,3.428-3.52,6.207-7.86,6.207h-154.844c-4.341,0-7.86-2.779-7.86-6.207v-77.586
			c0-3.428,3.52-6.207,7.86-6.207h154.844c4.341,0,7.86,2.779,7.86,6.207V540.497z"/>
		<path fill="#3EC69F" d="M1232.068,650.497c0,3.428-3.52,6.207-7.86,6.207h-154.844c-4.341,0-7.86-2.779-7.86-6.207v-77.586
			c0-3.428,3.52-6.207,7.86-6.207h154.844c4.341,0,7.86,2.779,7.86,6.207V650.497z"/>
		<text transform="matrix(1 0 0 1 1110.6074 290.5557)" fill="#FFFFFF" font-family="'VarelaRound-Regular'" font-size="35">&lt;/a&gt;</text>
		<text transform="matrix(1 0 0 1 1085.1074 511.2031)" fill="#FFFFFF" font-family="'VarelaRound-Regular'" font-size="30">&lt;/body&gt;</text>
		<text transform="matrix(1 0 0 1 1085.1074 398.5557)" fill="#FFFFFF" font-family="'VarelaRound-Regular'" font-size="30">&lt;/head&gt;</text>
		<text transform="matrix(1 0 0 1 1092.1074 622.5557)" fill="#FFFFFF" font-family="'VarelaRound-Regular'" font-size="30">&lt;script&gt;</text>
		<text transform="matrix(1 0 0 1 516.543 400.5557)" fill="#FFFFFF" font-family="'VarelaRound-Regular'" font-size="30">&lt;/script&gt;</text>
	</g>
	<text transform="matrix(1 0 0 1 2005.9004 -956.5117)" fill="#763B4C" font-family="'Montserrat-Bold'" font-size="48">GAME OVER</text>
	<text transform="matrix(1 0 0 1 2042.375 -868.7661)" fill="#763B4C" font-family="'Montserrat-Bold'" font-size="48">02:00:00</text>
	<text transform="matrix(1 0 0 1 696.8198 194.999)" fill="#30496D" font-family="'Montserrat-Regular'" font-size="40">02:00:00</text>
	<text transform="matrix(1 0 0 1 -859.9297 -668.5259)" fill="#763B4C" font-family="'Montserrat-Bold'" font-size="48">CLOSE YOUR TAGS</text>
	<text transform="matrix(1 0 0 1 -683.8379 -450.2725)" fill="#FFFFFF" font-family="'Montserrat-Bold'" font-size="30">BEGIN</text>
	<rect x="-953.269" y="-629.01" fill="none" width="678.001" height="69.086"/>
	<text transform="matrix(1 0 0 1 -934.1514 -611.2607)"><tspan x="0" y="0" fill="#F06E41" font-family="'VarelaRound-Regular'" font-size="25">It’s time to fix your code! Match the opening tags with closing </tspan><tspan x="184.647" y="30" fill="#F06E41" font-family="'VarelaRound-Regular'" font-size="25">tags as quickly as you can. </tspan></text>
</g>
<g id="Layer_3">
	<path fill="#E8DB67" d="M1841.537-642.174c0,38.66-31.34,70-70,70h-4.293c-38.66,0-70-31.34-70-70v-54.744c0-38.66,31.34-70,70-70
		h4.293c38.66,0,70,31.34,70,70V-642.174z"/>
	<g>
		<circle fill="none" stroke="#444444" stroke-width="10.8005" stroke-miterlimit="10" cx="1804.924" cy="-663.288" r="20.161"/>
		<circle fill="none" stroke="#444444" stroke-width="10.8005" stroke-miterlimit="10" cx="1733.856" cy="-663.288" r="20.161"/>
	</g>
	
		<line fill="none" stroke="#444444" stroke-width="10.8005" stroke-miterlimit="10" x1="1754.017" y1="-663.288" x2="1784.764" y2="-663.288"/>
	<path fill="none" stroke="#444444" stroke-width="10.8005" stroke-linecap="round" stroke-miterlimit="10" d="M1747.724-614.026
		c0,0,22.334-20.999,43.334,0"/>
	<circle fill="#444444" cx="1814.448" cy="-662.84" r="7.167"/>
	<circle fill="#444444" cx="1744.022" cy="-662.84" r="7.167"/>
	<path fill="#444444" d="M1777.726-791.166l-13.344-13.344v13.193l-13.193-13.193v14.185c-33.425,5.285-58.983,34.221-58.983,69.132
		v24.371h34.146v-17.666l27.892,17.666h92.333v-24.371C1846.575-759.467,1815.853-790.549,1777.726-791.166z"/>
	<path fill="#E8DB67" d="M1717.037-896.174c0,38.66-31.34,70-70,70h-4.293c-38.66,0-70-31.34-70-70v-54.744c0-38.66,31.34-70,70-70
		h4.293c38.66,0,70,31.34,70,70V-896.174z"/>
	<path fill="none" stroke="#444444" stroke-width="10.8005" stroke-miterlimit="10" d="M1660.264-917.288"/>
	<path fill="none" stroke="#444444" stroke-width="10.8005" stroke-miterlimit="10" d="M1629.517-917.288"/>
	<path fill="none" stroke="#444444" stroke-width="10.8005" stroke-linecap="round" stroke-miterlimit="10" d="M1666.558-877.358
		c0,0-22.334,20.999-43.334,0"/>
	<circle fill="#444444" cx="1675.615" cy="-916.84" r="7.167"/>
	<circle fill="#444444" cx="1619.522" cy="-916.84" r="7.167"/>
	<path fill="#444444" d="M1653.226-1045.166l-26.537,0.841c-33.425,5.285-58.983,34.221-58.983,69.132v24.371v43.811l21.961,10.333
		v-54.145h62.945v-17.666l27.892,17.666h41.572v-24.371C1722.075-1013.467,1691.353-1044.549,1653.226-1045.166z"/>
	<path fill="#444444" d="M1639.882-1045.316"/>
	<path fill="#E8DB67" d="M1841.537-362.175c0,38.66-31.34,70-70,70h-4.293c-38.66,0-70-31.34-70-70v-54.744c0-38.66,31.34-70,70-70
		h4.293c38.66,0,70,31.34,70,70V-362.175z"/>
	<path fill="#2D2D2D" d="M1841.48-400.342l0.057-16.577c0-38.66-31.34-70-70-70h-4.293c-38.66,0-70,31.34-70,70l-0.057,16.577
		c0,0,46.138-10.668,72.146-10.668S1841.48-400.342,1841.48-400.342z"/>
	<path fill="#2D2D2D" d="M1697.244-378.752l-0.057,16.577c0,38.66,31.34,70,70,70h4.293c38.66,0,70-31.34,70-70l0.057-16.577
		c0,0-34.42,18.08-72.146,18.08S1697.244-378.752,1697.244-378.752z"/>
	<circle fill="#444444" cx="1798.224" cy="-382.841" r="7.167"/>
	
		<line fill="none" stroke="#444444" stroke-width="10.8005" stroke-linecap="round" stroke-miterlimit="10" x1="1789.074" y1="-402.843" x2="1813.74" y2="-413.509"/>
	<circle fill="#444444" cx="1741.486" cy="-382.841" r="7.167"/>
	
		<line fill="none" stroke="#444444" stroke-width="10.8005" stroke-linecap="round" stroke-miterlimit="10" x1="1750.636" y1="-402.843" x2="1725.97" y2="-413.509"/>
	<path fill="none" stroke="#444444" stroke-width="10.8005" stroke-linecap="round" stroke-miterlimit="10" d="M1722.921-413.509"/>
	<path fill="none" stroke="#444444" stroke-width="10.8005" stroke-linecap="round" stroke-miterlimit="10" d="M1747.587-402.843"/>
	<circle fill="#444444" cx="1644.891" cy="-1060.678" r="29.12"/>
	<path fill="#444444" d="M1662.714-1044.745c33.425,5.285,58.983,34.221,58.983,69.132v24.371v43.811l-21.961,10.333v-54.145"/>
	<polyline fill="#2D2D2D" points="1823.3,-454.95 1839.788,-471.438 1815.44,-471.438 	"/>
	<polyline fill="#2D2D2D" points="1815.44,-471.438 1815.44,-494.756 1798.225,-477.54 	"/>
</g>
</svg>
