<?xml version="1.0" encoding="utf-8"?>
<!-- Generator: Adobe Illustrator 16.0.0, SVG Export Plug-In . SVG Version: 6.00 Build 0)  -->
<!DOCTYPE svg PUBLIC "-//W3C//DTD SVG 1.1//EN" "http://www.w3.org/Graphics/SVG/1.1/DTD/svg11.dtd">
<svg version="1.1" id="composition" xmlns="http://www.w3.org/2000/svg" xmlns:xlink="http://www.w3.org/1999/xlink" x="0px"
	 y="0px" width="1709.353px" height="867.606px" viewBox="0 0 1709.353 867.606" enable-background="new 0 0 1709.353 867.606"
	 xml:space="preserve">
<g id="table">
	<g id="frames">
		
			<rect x="1515.688" y="281.016" fill="#FFFFFF" stroke="#775B45" stroke-width="12.7111" stroke-miterlimit="10" width="181.694" height="173.336"/>
		
			<rect x="1326.442" y="190.374" fill="#FFFFFF" stroke="#775B45" stroke-width="12.7111" stroke-miterlimit="10" width="141.694" height="173.336"/>
		
			<ellipse fill="#FFFFFF" stroke="#775B45" stroke-width="12.7111" stroke-miterlimit="10" cx="1558.733" cy="103.082" rx="68.938" ry="92.088"/>
	</g>
	<g id="desk">
		<rect x="0.023" y="623.192" fill="#C64934" width="1709.33" height="120.81"/>
		<rect x="-0.389" y="743.184" fill="#8C3625" width="1709.33" height="31.412"/>
	</g>
	<g id="cup-2">
		<ellipse fill="#663428" cx="1586.535" cy="640.174" rx="40.333" ry="12.974"/>
		<g>
			<path fill="#FFFFFF" d="M1560.924,578.032v51.334c0,5.522,4.477,10,10,10h33.334c5.522,0,10-4.478,10-10v-51.334"/>
			<path fill="none" stroke="#FFFFFF" stroke-width="6" stroke-miterlimit="10" d="M1548.201,610.866c0,5.522,4.478,10,10,10h9.667
				c5.522,0,10-4.478,10-10v-4.333c0-5.522-4.478-10-10-10h-9.667c-5.522,0-10,4.478-10,10V610.866z"/>
		</g>
	</g>
	<g id="cup">
		<ellipse fill="#663428" cx="451.135" cy="652.312" rx="40.333" ry="12.974"/>
		<g>
			<path fill="#FFFFFF" d="M476.746,590.17v51.334c0,5.522-4.477,10-10,10h-33.333c-5.523,0-10-4.478-10-10V590.17"/>
			<path fill="none" stroke="#FFFFFF" stroke-width="6" stroke-miterlimit="10" d="M489.469,623.004c0,5.522-4.477,10-10,10h-9.667
				c-5.523,0-10-4.478-10-10v-4.333c0-5.522,4.477-10,10-10h9.667c5.523,0,10,4.478,10,10V623.004z"/>
		</g>
	</g>
	<g id="lamp">
		<path fill="#4C4C4C" d="M1405.76,656.584c-7.384-3.026-18.851-4.974-31.739-4.974s-24.356,1.947-31.74,4.974h-8.594v8
			c0,7.165,18.059,12.974,40.334,12.974s40.333-5.809,40.333-12.974v-8H1405.76z"/>
		<ellipse fill="#727272" cx="1374.02" cy="656.584" rx="40.333" ry="12.974"/>
		<circle fill="#E2DF79" cx="1326.442" cy="510.638" r="13.911"/>
		<path fill="#727272" d="M1363.845,477.033l1.472-2.498c2.888-4.902,4.49-7.729-2.669-12.645
			c-6.84-4.697-11.215-1.254-14.102,3.647l-2.735,4.644c-11.339-3.771-24.158,0.728-30.47,11.439l-15.729,17.553l50.871,29.424
			l9.494-20.682c3.752-6.367,5.536-14.761,3.971-21.664c8.323,7.544,13.062,15.647,13.062,22.864
			c0,10.797-3.394,140.464-3.428,141.234l6.992,0.311c0.141-3.148,3.436-130.593,3.436-141.545
			C1384.01,498.397,1376.754,486.98,1363.845,477.033z"/>
	</g>
	<g id="fish">
		<path opacity="0.7" fill="#A7EAE6" d="M975.709,610.466c0-18.458-8.595-34.897-21.988-45.57h-72.523
			c-13.394,10.673-21.988,27.112-21.988,45.57c0,23.352,13.746,43.482,33.583,52.771v6.708h49.333v-6.708
			C961.962,653.949,975.709,633.817,975.709,610.466z"/>
		<path fill="#D87A1D" d="M950.755,615.981l-7.207,4.19c-2.544-8.5-12.403-8.504-12.403-8.504s-14.027-0.178-14.027,13.313
			c0,11.78,13.513,10.996,13.513,10.996s9.507-0.188,12.571-6.852l7.554,4.855V615.981z"/>
		<circle fill="#FFFFFF" cx="897.112" cy="609.035" r="3.689"/>
		<circle fill="#FFFFFF" cx="904.491" cy="617.42" r="3.689"/>
		<circle fill="#FFFFFF" cx="904.491" cy="598.23" r="3.689"/>
		<circle fill="#FFFFFF" cx="897.112" cy="586.809" r="3.689"/>
	</g>
	<g id="pencils">
		<g>
			
				<rect x="574.667" y="532.226" transform="matrix(0.9761 -0.2172 0.2172 0.9761 -102.6978 138.1759)" fill="#515151" width="4.999" height="8"/>
			<polygon fill="#515151" points="588.208,604.599 594.039,612.38 596.016,602.861 594.303,595.161 586.494,596.898 			"/>
			
				<rect x="580.699" y="536.325" transform="matrix(0.9761 -0.2172 0.2172 0.9761 -109.9409 140.6158)" fill="#E8D885" width="7.999" height="68.221"/>
			
				<rect x="583.057" y="543.391" transform="matrix(0.9761 -0.2174 0.2174 0.9761 -106.9968 140.5889)" fill="#515151" width="5" height="26.528"/>
		</g>
		<g>
			
				<rect x="590.829" y="598.718" transform="matrix(-0.9353 -0.3538 0.3538 -0.9353 935.0588 1376.3655)" fill="#515151" width="4.999" height="8.001"/>
			<polygon fill="#515151" points="621.612,539.499 621.006,529.795 614.133,536.668 612.688,544.556 617.467,546.364 			"/>
			
				<rect x="601.804" y="535.877" transform="matrix(-0.9352 -0.354 0.354 -0.9352 970.6025 1317.5181)" fill="#E8D885" width="7.997" height="68.22"/>
			
				<rect x="595.022" y="567.772" transform="matrix(-0.9353 -0.3539 0.3539 -0.9353 950.7608 1335.9243)" fill="#515151" width="5" height="26.527"/>
		</g>
		<g>
			
				<rect x="590.073" y="510.738" transform="matrix(0.9991 -0.0412 0.0412 0.9991 -20.7159 24.8659)" fill="#515151" width="4.998" height="7.999"/>
			<polygon fill="#515151" points="591.355,583.985 595.721,592.675 599.348,583.655 599.023,575.774 591.029,576.103 			"/>
			
				<rect x="589.94" y="515.629" transform="matrix(0.9991 -0.0413 0.0413 0.9991 -22.1791 24.9771)" fill="#E8D885" width="7.999" height="68.221"/>
			
				<rect x="594.72" y="523.064" transform="matrix(0.9992 -0.0412 0.0412 0.9992 -21.5938 25.0659)" fill="#515151" width="5" height="26.528"/>
		</g>
		<rect x="568.423" y="560.703" fill="#97AED3" width="51.5" height="76.365"/>
	</g>
	<g id="books">
		<rect x="719.561" y="523.931" fill="#913C96" width="24.909" height="111.374"/>
		<g>
			<rect x="744.47" y="612.374" fill="#CCC246" width="86.832" height="22.896"/>
			<rect x="744.47" y="605.68" fill="#9B9B9B" width="74.334" height="6.711"/>
			<g>
				<rect x="705.56" y="541.596" fill="#73964B" width="14.667" height="93.709"/>
				<g>
					<path fill="#71931D" d="M756.385,540.097c0,0-2.815-12.068,4.667-10.519c3.917,0.812,3.333,5.137,3.333,5.137
						s-4.021-16.236,1.75-16.825c6.521-0.666,6.917,11.688,6.917,11.688s-4.914-22.814,5.167-23.187c9.625-0.355,8,13.499,8,13.499
						s4.333-6.75,6.166-2.461c1.886,4.413-2.333,12.148-2.333,12.148s4.667-9.534,10.167-6.36s-0.667,16.879-0.667,16.879"/>
					<rect x="647.13" y="561.157" fill="#CC2929" width="29.333" height="74.147"/>
					<rect x="676.463" y="530.934" fill="#E2E2E2" width="29.333" height="104.371"/>
					<rect x="744.469" y="591.413" fill="#934916" width="93.335" height="15.111"/>
					<rect x="744.468" y="576.302" fill="#3D3D3D" width="80.583" height="15.111"/>
					<rect x="632.463" y="520.93" fill="#52A8E2" width="14.667" height="114.375"/>
					<rect x="647.302" y="568.096" fill="#DDD466" width="29.162" height="15.023"/>
					<rect x="681.755" y="609.846" fill="#6D6D6D" width="18.75" height="20.04"/>
					<rect x="719.561" y="561.157" fill="#7BAAAF" width="24.909" height="37.073"/>
					<rect x="719.561" y="528.491" fill="#DDD466" width="24.909" height="8.439"/>
					<rect x="751.469" y="612.369" fill="#BF4773" width="10.5" height="22.936"/>
					<polygon fill="#3F2213" points="756.719,544.474 761.969,576.398 795.219,576.398 800.219,544.474 					"/>
					<rect x="753.969" y="537.557" fill="#683B28" width="49" height="9.251"/>
				</g>
			</g>
		</g>
	</g>
	<g id="Layer_7" display="none">
		<rect x="1472.802" y="65.303" display="inline" fill="#FFFFFF" width="356" height="225.334"/>
		
			<rect x="132.586" y="-63.453" transform="matrix(0.9785 0.2061 -0.2061 0.9785 -0.4732 -35.0306)" display="inline" fill="#FFFFFF" stroke="#494949" stroke-width="12" stroke-miterlimit="10" width="70.667" height="87.334"/>
		<rect x="1472.802" y="65.303" display="inline" fill="#BF3D3D" width="356" height="70.665"/>
		<circle display="inline" fill="#EFEA9C" cx="1642.135" cy="86.076" r="6"/>
	</g>
	<g id="desktop">
		<path fill="#FFFFFF" d="M389.408,679.712c1.638,7.84-3.39,15.521-11.228,17.159l0,0c-7.84,1.638-14.379-3.108-17.159-11.228
			l-6.511-13.544c-1.638-7.838,3.389-15.521,11.229-17.159l0,0c7.838-1.638,12.831,3.572,17.158,11.228L389.408,679.712z"/>
		<path fill="none" stroke="#FFFFFF" stroke-width="3" stroke-miterlimit="10" d="M363.802,660.596c0,0-2.456-16.322-13.667-16.322
			c0,0-12.833,2.498-27,1.655c-8.979-0.534-30.887-1.26-37.813-11.707c-9.333-14.076-43.02-2.726-43.02-2.726"/>
		<polygon fill="#D6D6D6" points="89.486,665.285 80.921,711.607 336.729,711.607 327.294,665.285 		"/>
		<g>
			<path d="M391.416,322.674H12.222C5.472,322.674,0,328.146,0,334.896v253.929c0,6.748,5.472,12.221,12.222,12.221h379.194
				c6.749,0,12.221-5.473,12.221-12.221V334.896C403.637,328.146,398.165,322.674,391.416,322.674z M389.718,551.142H14.258V336.593
				h375.46V551.142z"/>
			<path fill="#777777" d="M0,564.618V589.4c0,6.749,5.472,12.221,12.222,12.221h379.194c6.749,0,12.221-5.472,12.221-12.221
				v-24.782H0z"/>
			<g>
				<rect x="136.469" y="646.771" fill="#666666" width="130.698" height="3.734"/>
				<polygon fill="#AAAAAA" points="267.167,646.771 136.809,646.771 154.122,631.496 249.515,631.496 				"/>
				<polygon fill="#888888" points="249.515,631.496 154.122,631.496 157.856,601.621 246.12,601.621 				"/>
			</g>
			<circle fill="#666666" cx="202.327" cy="583.969" r="9.166"/>
			<rect x="14.258" y="336.593" fill="#C7FAFF" width="375.46" height="214.549"/>
		</g>
	</g>
	<path id="chair" fill="#DDBB92" d="M291.232,639.134H114.002c-11.046,0-20,8.955-20,20v188.473c0,11.047,8.954,20,20,20h177.229
		c11.046,0,20-8.953,20-20V659.134C311.232,648.089,302.278,639.134,291.232,639.134z M145.497,809.216
		c-8.301,0-15.031-6.73-15.031-15.031s6.729-15.031,15.031-15.031c8.302,0,15.032,6.73,15.032,15.031
		S153.799,809.216,145.497,809.216z M145.497,759.226c-8.301,0-15.031-6.729-15.031-15.029c0-8.303,6.729-15.033,15.031-15.033
		c8.302,0,15.032,6.73,15.032,15.033C160.529,752.497,153.799,759.226,145.497,759.226z M145.497,707.216
		c-8.301,0-15.031-6.73-15.031-15.031s6.729-15.031,15.031-15.031c8.302,0,15.032,6.73,15.032,15.031
		S153.799,707.216,145.497,707.216z M202.331,809.216c-8.301,0-15.031-6.73-15.031-15.031s6.729-15.031,15.031-15.031
		c8.302,0,15.031,6.73,15.031,15.031S210.632,809.216,202.331,809.216z M202.331,759.226c-8.301,0-15.031-6.729-15.031-15.029
		c0-8.303,6.729-15.033,15.031-15.033c8.302,0,15.031,6.73,15.031,15.033C217.362,752.497,210.632,759.226,202.331,759.226z
		 M202.331,707.216c-8.301,0-15.031-6.73-15.031-15.031s6.729-15.031,15.031-15.031c8.302,0,15.031,6.73,15.031,15.031
		S210.632,707.216,202.331,707.216z M259.737,809.216c-8.301,0-15.031-6.73-15.031-15.031s6.73-15.031,15.031-15.031
		c8.302,0,15.031,6.73,15.031,15.031S268.039,809.216,259.737,809.216z M259.737,759.226c-8.301,0-15.031-6.729-15.031-15.029
		c0-8.303,6.73-15.033,15.031-15.033c8.302,0,15.031,6.73,15.031,15.033C274.768,752.497,268.039,759.226,259.737,759.226z
		 M259.737,707.216c-8.301,0-15.031-6.73-15.031-15.031s6.73-15.031,15.031-15.031c8.302,0,15.031,6.73,15.031,15.031
		S268.039,707.216,259.737,707.216z"/>
	<g id="notes">
		<polygon fill="#D6D6D6" points="519.973,653.032 511.407,699.354 604.407,699.354 594.973,653.032 		"/>
		<polygon fill="#EAE6B5" points="448.41,674.193 439.845,730.096 517.802,730.096 523.41,674.193 		"/>
		<polygon fill="#FFFFFF" points="541.9,675.842 537.88,722.777 630.438,713.734 616.545,668.55 		"/>
	</g>
	
		<rect id="desktop-note-3" x="329.674" y="581.049" transform="matrix(0.9792 0.203 -0.203 0.9792 128.5204 -57.853)" fill="#EFE492" width="33.335" height="33.335"/>
	
		<rect id="desktop-note-2" x="289.574" y="559.107" transform="matrix(0.9979 0.0652 -0.0652 0.9979 38.1821 -18.7373)" fill="#EFE492" width="33.335" height="33.336"/>
	
		<rect id="desktop-note-1" x="349.049" y="328.939" transform="matrix(0.9979 0.0652 -0.0652 0.9979 23.3055 -23.1035)" fill="#EFE492" width="33.335" height="33.336"/>
	<path fill-rule="evenodd" clip-rule="evenodd" fill="#E9E9E9" d="M1261.815,701.064"/>
	<g id="laptop">
		<path fill-rule="evenodd" clip-rule="evenodd" fill="#E9E9E9" d="M1265.533,657.474h-241.473l-31.771,47.189
			c0,7.018-0.155,12.708,12.467,12.708h285.295c9.5,0,7.254-12.708,7.254-12.708L1265.533,657.474z"/>
		<g>
			<path fill-rule="evenodd" clip-rule="evenodd" fill="#3D3D3D" d="M1147.975,657.474h-123.914V501.793
				c0-4.681,3.794-8.474,8.474-8.474h115.44h109.087c4.68,0,8.472,3.793,8.472,8.474v155.681H1147.975z"/>
			<path fill-rule="evenodd" clip-rule="evenodd" fill="#E9E9E9" d="M1148.515,495.54c1.099,0,1.99,0.89,1.99,1.987
				c0,1.099-0.892,1.989-1.99,1.989c-1.098,0-1.988-0.891-1.988-1.989C1146.526,496.43,1147.417,495.54,1148.515,495.54z"/>
			<path fill-rule="evenodd" clip-rule="evenodd" fill="#777777" d="M1030.415,649.001V501.793h228.766v147.208H1030.415z"/>
			<path fill-rule="evenodd" clip-rule="evenodd" fill="#B3B2B2" d="M1165.983,704.663c0,2.339-1.939,4.236-4.331,4.236h-33.708
				c-2.391,0-4.33-1.897-4.33-4.236H1165.983z"/>
		</g>
		<polyline fill-rule="evenodd" clip-rule="evenodd" fill="#B3B2B2" points="1028.742,663.893 1007.665,695.984 1281.802,695.984 
			1263.144,664.643 		"/>
	</g>
	<g id="opened-book">
		<polygon fill-rule="evenodd" clip-rule="evenodd" fill="#4BA358" points="812.025,659.385 825.722,714.466 764.389,717.07 
			765.588,720.622 748.425,722.466 748.425,719.133 687.716,723.133 693.055,667.211 715.265,661.087 753.717,667.211 
			790.055,655.746 		"/>
		<g>
			<path fill="#D6D6D6" d="M802.967,654.481c0,0-21.861-9.209-51.114,5.412c-31.004-10.404-50.918,1.729-50.918,1.729l-6.292,55.448
				c0,0,44.103-19.023,61.071-4.273c14.75-16.97,61.205-4.283,61.205-4.283L802.967,654.481z"/>
			<path fill="#808285" d="M800.391,658.515l3.089,13.334c0,0-30.62-6.559-50.126,5.297l-0.914-13.059
				C781.692,649.465,800.391,658.515,800.391,658.515z"/>
			<path fill="#808285" d="M779.323,674.454l1.549,13.822c0,0-12.059-0.367-26.237,6.166l-0.991-13.155
				C765.759,673.544,779.323,674.454,779.323,674.454z"/>
		</g>
	</g>
	<polygon id="note2" fill="#EFE492" points="1660.013,667.289 1626.868,665.758 1633.54,639.005 1666.687,640.536 	"/>
	<g id="notes-1">
		<polygon fill="#EAE6B5" points="1534.807,676.712 1526.241,732.614 1604.198,732.614 1609.807,676.712 		"/>
		<polygon fill="#FFFFFF" points="1492.216,661.63 1472.468,714.168 1554.95,712.87 1558.733,660.584 		"/>
		<polygon fill="#EFE492" points="1488.993,696.249 1456.336,704.193 1449.047,678.501 1481.706,670.558 		"/>
	</g>
	<polygon id="note-1" fill="#EFE492" points="1450.327,723.042 1417.67,730.986 1410.381,705.294 1443.04,697.351 	"/>
</g>
</svg>
