<?xml version="1.0" encoding="utf-8"?>
<!-- Generator: Adobe Illustrator 16.0.0, SVG Export Plug-In . SVG Version: 6.00 Build 0)  -->
<!DOCTYPE svg PUBLIC "-//W3C//DTD SVG 1.1//EN" "http://www.w3.org/Graphics/SVG/1.1/DTD/svg11.dtd">
<svg version="1.1" id="desktop" xmlns="http://www.w3.org/2000/svg" xmlns:xlink="http://www.w3.org/1999/xlink" x="0px" y="0px"
	 width="403.637px" height="388.934px" viewBox="0 0 403.637 388.934" enable-background="new 0 0 403.637 388.934"
	 xml:space="preserve">
<path fill="#FFFFFF" d="M389.409,357.038c1.637,7.84-3.392,15.521-11.229,17.159l0,0c-7.84,1.638-14.379-3.108-17.157-11.229
	l-6.513-13.544c-1.637-7.838,3.39-15.521,11.229-17.159l0,0c7.838-1.638,12.832,3.572,17.158,11.229L389.409,357.038z"/>
<path fill="none" stroke="#FFFFFF" stroke-width="3" stroke-miterlimit="10" d="M363.801,337.922c0,0-2.455-16.322-13.666-16.322
	c0,0-12.834,2.498-27,1.655c-8.979-0.534-30.887-1.26-37.812-11.707c-9.333-14.076-43.021-2.726-43.021-2.726"/>
<polygon fill="#D6D6D6" points="89.487,342.611 80.92,388.934 336.729,388.934 327.293,342.611 "/>
<path d="M391.417,0H12.222C5.472,0,0,5.472,0,12.222V266.15c0,6.748,5.472,12.222,12.222,12.222h379.195
	c6.748,0,12.221-5.474,12.221-12.222V12.222C403.637,5.472,398.165,0,391.417,0z M389.717,228.468H14.258V13.919h375.459V228.468z"
	/>
<path fill="#777777" d="M0,241.944v24.782c0,6.749,5.472,12.222,12.222,12.222h379.195c6.748,0,12.221-5.473,12.221-12.222v-24.782
	H0L0,241.944z"/>
<rect x="136.469" y="324.098" fill="#666666" width="130.697" height="3.734"/>
<polygon fill="#AAAAAA" points="267.167,324.098 136.809,324.098 154.122,308.823 249.514,308.823 "/>
<polygon fill="#888888" points="249.514,308.823 154.122,308.823 157.856,278.948 246.12,278.948 "/>
<circle fill="#666666" cx="202.327" cy="261.295" r="9.166"/>
<rect x="14.258" y="13.919" fill="#C7FAFF" width="375.459" height="214.549"/>
</svg>
