<?xml version="1.0" encoding="utf-8"?>
<!-- Generator: Adobe Illustrator 16.0.0, SVG Export Plug-In . SVG Version: 6.00 Build 0)  -->
<!DOCTYPE svg PUBLIC "-//W3C//DTD SVG 1.1//EN" "http://www.w3.org/Graphics/SVG/1.1/DTD/svg11.dtd">
<svg version="1.1" xmlns="http://www.w3.org/2000/svg" xmlns:xlink="http://www.w3.org/1999/xlink" x="0px" y="0px"
	 width="403.637px" height="388.934px" viewBox="0 0 403.637 388.934" enable-background="new 0 0 403.637 388.934"
	 xml:space="preserve">
<g id="Layer_1" display="none">
	<g id="fish" display="inline">
		<path opacity="0.7" fill="#A7EAE6" d="M-255.365,182.642c0-18.458-8.595-34.897-21.988-45.57h-72.523
			c-13.394,10.673-21.988,27.112-21.988,45.57c0,23.352,13.746,43.482,33.583,52.771v6.708h49.333v-6.708
			C-269.112,226.125-255.365,205.993-255.365,182.642z"/>
		<path fill="#D87A1D" d="M-280.319,188.157l-7.207,4.19c-2.544-8.5-12.403-8.504-12.403-8.504s-14.027-0.178-14.027,13.313
			c0,11.78,13.513,10.996,13.513,10.996s9.507-0.188,12.571-6.852l7.554,4.855V188.157z"/>
		<circle fill="#FFFFFF" cx="-333.961" cy="181.211" r="3.689"/>
		<circle fill="#FFFFFF" cx="-326.583" cy="189.596" r="3.689"/>
		<circle fill="#FFFFFF" cx="-326.583" cy="170.406" r="3.689"/>
		<circle fill="#FFFFFF" cx="-333.961" cy="158.984" r="3.689"/>
	</g>
</g>
<g id="Layer_2" display="none">
	<g display="inline">
		<polygon fill-rule="evenodd" clip-rule="evenodd" fill="#4BA358" points="-247.556,144.836 -233.859,199.917 -295.192,202.522 
			-293.993,206.074 -311.156,207.917 -311.156,204.584 -371.865,208.584 -366.526,152.663 -344.316,146.539 -305.864,152.663 
			-269.526,141.198 		"/>
		<g>
			<path fill="#D6D6D6" d="M-256.614,139.933c0,0-21.861-9.209-51.114,5.412c-31.004-10.404-50.918,1.729-50.918,1.729
				l-6.292,55.448c0,0,44.103-19.023,61.071-4.273c14.75-16.97,61.205-4.283,61.205-4.283L-256.614,139.933z"/>
			<path fill="#808285" d="M-259.19,143.966l3.089,13.334c0,0-30.62-6.559-50.126,5.297l-0.914-13.059
				C-277.889,134.917-259.19,143.966-259.19,143.966z"/>
			<path fill="#808285" d="M-280.258,159.906l1.549,13.822c0,0-12.059-0.367-26.237,6.166l-0.991-13.155
				C-293.822,158.996-280.258,159.906-280.258,159.906z"/>
		</g>
	</g>
</g>
<g id="Layer_3" display="none">
	<g display="inline">
		<rect x="-793.821" y="66.295" fill="#C64934" width="1566" height="120.81"/>
		<rect x="-794.198" y="186.286" fill="#8C3625" width="1566" height="31.412"/>
	</g>
</g>
<g id="Layer_4">
	<g>
		<path fill="#FFFFFF" d="M389.409,357.038c1.637,7.84-3.391,15.521-11.229,17.159l0,0c-7.84,1.638-14.379-3.108-17.158-11.228
			l-6.512-13.544c-1.637-7.838,3.389-15.521,11.229-17.159l0,0c7.838-1.638,12.832,3.572,17.158,11.228L389.409,357.038z"/>
		<path fill="none" stroke="#FFFFFF" stroke-width="3" stroke-miterlimit="10" d="M363.801,337.922c0,0-2.455-16.322-13.666-16.322
			c0,0-12.834,2.498-27,1.655c-8.979-0.534-30.887-1.26-37.813-11.707c-9.333-14.076-43.021-2.726-43.021-2.726"/>
		<polygon fill="#D6D6D6" points="89.487,342.611 80.92,388.934 336.729,388.934 327.293,342.611 		"/>
		<g>
			<path d="M391.417,0H12.222C5.472,0,0,5.472,0,12.222V266.15c0,6.748,5.472,12.221,12.222,12.221h379.195
				c6.748,0,12.221-5.473,12.221-12.221V12.222C403.637,5.472,398.165,0,391.417,0z M389.717,228.468H14.258V13.919h375.459V228.468
				z"/>
			<path fill="#777777" d="M0,241.944v24.782c0,6.749,5.472,12.221,12.222,12.221h379.195c6.748,0,12.221-5.472,12.221-12.221
				v-24.782H0z"/>
			<g>
				<rect x="136.469" y="324.098" fill="#666666" width="130.697" height="3.734"/>
				<polygon fill="#AAAAAA" points="267.167,324.098 136.809,324.098 154.122,308.822 249.514,308.822 				"/>
				<polygon fill="#888888" points="249.514,308.822 154.122,308.822 157.856,278.947 246.12,278.947 				"/>
			</g>
			<circle fill="#666666" cx="202.327" cy="261.295" r="9.166"/>
			<rect x="14.258" y="13.919" fill="#C7FAFF" width="375.459" height="214.549"/>
		</g>
	</g>
</g>
</svg>
