<?xml version="1.0" encoding="utf-8"?>
<!-- Generator: Adobe Illustrator 16.0.0, SVG Export Plug-In . SVG Version: 6.00 Build 0)  -->
<!DOCTYPE svg PUBLIC "-//W3C//DTD SVG 1.1//EN" "http://www.w3.org/Graphics/SVG/1.1/DTD/svg11.dtd">
<svg version="1.1" id="Layer_1" xmlns="http://www.w3.org/2000/svg" xmlns:xlink="http://www.w3.org/1999/xlink" x="0px" y="0px"
	 width="116.499px" height="105.049px" viewBox="374.408 393.927 116.499 105.049"
	 enable-background="new 374.408 393.927 116.499 105.049" xml:space="preserve">
<g id="fish">
	<path opacity="0.7" fill="#A7EAE6" enable-background="new    " d="M490.907,439.497c0-18.458-8.595-34.897-21.988-45.57h-72.522
		c-13.395,10.673-21.988,27.112-21.988,45.57c0,23.352,13.746,43.481,33.583,52.771v6.708h49.333v-6.708
		C477.16,482.98,490.907,462.849,490.907,439.497z"/>
	<path fill="#D87A1D" d="M465.953,445.013l-7.207,4.19c-2.544-8.5-12.403-8.504-12.403-8.504s-14.026-0.178-14.026,13.312
		c0,11.78,13.513,10.996,13.513,10.996s9.507-0.188,12.571-6.852l7.554,4.854L465.953,445.013L465.953,445.013z"/>
	<circle fill="#FFFFFF" cx="412.311" cy="438.066" r="3.689"/>
	<circle fill="#FFFFFF" cx="419.689" cy="446.451" r="3.689"/>
	<circle fill="#FFFFFF" cx="419.689" cy="427.262" r="3.689"/>
	<circle fill="#FFFFFF" cx="412.311" cy="415.84" r="3.689"/>
</g>
</svg>
