<?xml version="1.0" encoding="utf-8"?>
<!-- Generator: Adobe Illustrator 16.0.0, SVG Export Plug-In . SVG Version: 6.00 Build 0)  -->
<!DOCTYPE svg PUBLIC "-//W3C//DTD SVG 1.1//EN" "http://www.w3.org/Graphics/SVG/1.1/DTD/svg11.dtd">
<svg version="1.1" id="lamp" xmlns="http://www.w3.org/2000/svg" xmlns:xlink="http://www.w3.org/1999/xlink" x="0px" y="0px"
	 width="114.742px" height="217.898px" viewBox="0 0 114.742 217.898" enable-background="new 0 0 114.742 217.898"
	 xml:space="preserve">
<path fill="#4C4C4C" d="M106.147,196.925c-7.384-3.025-18.851-4.974-31.739-4.974c-12.888,0-24.356,1.947-31.74,4.974h-8.594v8
	c0,7.165,18.059,12.975,40.333,12.975c22.275,0,40.334-5.81,40.334-12.975v-8H106.147z"/>
<ellipse fill="#727272" cx="74.408" cy="196.925" rx="40.334" ry="12.974"/>
<circle fill="#E2DF79" cx="26.83" cy="50.979" r="13.911"/>
<path fill="#727272" d="M64.232,17.374l1.473-2.498c2.887-4.901,4.489-7.729-2.67-12.645c-6.84-4.697-11.215-1.254-14.102,3.646
	l-2.735,4.645C34.859,6.751,22.04,11.25,15.729,21.962L0,39.515l50.871,29.424l9.494-20.683c3.752-6.366,5.536-14.761,3.971-21.664
	c8.324,7.545,13.062,15.647,13.062,22.864c0,10.797-3.395,140.464-3.428,141.234l6.992,0.311
	c0.141-3.147,3.436-130.593,3.436-141.545C84.397,38.738,77.142,27.321,64.232,17.374z"/>
</svg>
