<?xml version="1.0" encoding="utf-8"?>
<!-- Generator: Adobe Illustrator 16.0.0, SVG Export Plug-In . SVG Version: 6.00 Build 0)  -->
<!DOCTYPE svg PUBLIC "-//W3C//DTD SVG 1.1//EN" "http://www.w3.org/Graphics/SVG/1.1/DTD/svg11.dtd">
<svg version="1.1" xmlns="http://www.w3.org/2000/svg" xmlns:xlink="http://www.w3.org/1999/xlink" x="0px" y="0px"
	 width="305.247px" height="224.052px" viewBox="0 0 305.247 224.052" enable-background="new 0 0 305.247 224.052"
	 xml:space="preserve">
<g id="Layer_1" display="none">
	<g id="fish" display="inline">
		<path opacity="0.7" fill="#A7EAE6" d="M-289.725,72.382c0-18.458-8.595-34.897-21.988-45.57h-72.523
			c-13.394,10.673-21.988,27.112-21.988,45.57c0,23.352,13.746,43.482,33.583,52.771v6.708h49.333v-6.708
			C-303.472,115.866-289.725,95.734-289.725,72.382z"/>
		<path fill="#D87A1D" d="M-314.679,77.898l-7.207,4.19c-2.544-8.5-12.403-8.504-12.403-8.504s-14.027-0.178-14.027,13.313
			c0,11.78,13.513,10.996,13.513,10.996s9.507-0.188,12.571-6.852l7.554,4.855V77.898z"/>
		<circle fill="#FFFFFF" cx="-368.321" cy="70.952" r="3.689"/>
		<circle fill="#FFFFFF" cx="-360.942" cy="79.336" r="3.689"/>
		<circle fill="#FFFFFF" cx="-360.942" cy="60.147" r="3.689"/>
		<circle fill="#FFFFFF" cx="-368.321" cy="48.725" r="3.689"/>
	</g>
</g>
<g id="Layer_2" display="none">
	<g display="inline">
		<polygon fill-rule="evenodd" clip-rule="evenodd" fill="#4BA358" points="-281.916,34.577 -268.219,89.658 -329.552,92.263 
			-328.353,95.814 -345.516,97.658 -345.516,94.325 -406.225,98.325 -400.886,42.403 -378.676,36.279 -340.224,42.403 
			-303.886,30.938 		"/>
		<g>
			<path fill="#D6D6D6" d="M-290.974,29.674c0,0-21.861-9.209-51.114,5.412c-31.004-10.404-50.918,1.729-50.918,1.729l-6.292,55.448
				c0,0,44.103-19.023,61.071-4.273c14.75-16.97,61.205-4.283,61.205-4.283L-290.974,29.674z"/>
			<path fill="#808285" d="M-293.55,33.707l3.089,13.334c0,0-30.62-6.559-50.126,5.297l-0.914-13.059
				C-312.249,24.657-293.55,33.707-293.55,33.707z"/>
			<path fill="#808285" d="M-314.618,49.646l1.549,13.822c0,0-12.059-0.367-26.237,6.166l-0.991-13.155
				C-328.182,48.736-314.618,49.646-314.618,49.646z"/>
		</g>
	</g>
</g>
<g id="Layer_3" display="none">
	<g display="inline">
		<rect x="-828.181" y="-43.964" fill="#C64934" width="1566" height="120.81"/>
		<rect x="-828.558" y="76.027" fill="#8C3625" width="1566" height="31.412"/>
	</g>
</g>
<g id="Layer_4" display="none">
	<g display="inline">
		<path fill="#FFFFFF" d="M355.049,246.779c1.637,7.84-3.391,15.521-11.229,17.159l0,0c-7.84,1.638-14.379-3.108-17.158-11.228
			l-6.512-13.544c-1.637-7.838,3.389-15.521,11.229-17.159l0,0c7.838-1.638,12.832,3.572,17.158,11.228L355.049,246.779z"/>
		<path fill="none" stroke="#FFFFFF" stroke-width="3" stroke-miterlimit="10" d="M329.441,227.663c0,0-2.455-16.322-13.666-16.322
			c0,0-12.834,2.498-27,1.655c-8.979-0.534-30.887-1.26-37.813-11.707c-9.333-14.076-43.021-2.726-43.021-2.726"/>
		<polygon fill="#D6D6D6" points="55.127,232.352 46.561,278.674 302.369,278.674 292.934,232.352 		"/>
		<g>
			<path d="M357.057-110.259H-22.138c-6.75,0-12.222,5.472-12.222,12.222v253.929c0,6.748,5.472,12.221,12.222,12.221h379.195
				c6.748,0,12.221-5.473,12.221-12.221V-98.038C369.277-104.788,363.805-110.259,357.057-110.259z M355.357,118.208H-20.102V-96.34
				h375.459V118.208z"/>
			<path fill="#777777" d="M-34.36,131.685v24.782c0,6.749,5.472,12.221,12.222,12.221h379.195c6.748,0,12.221-5.472,12.221-12.221
				v-24.782H-34.36z"/>
			<g>
				<rect x="102.109" y="213.838" fill="#666666" width="130.697" height="3.734"/>
				<polygon fill="#AAAAAA" points="232.807,213.838 102.449,213.838 119.762,198.563 215.154,198.563 				"/>
				<polygon fill="#888888" points="215.154,198.563 119.762,198.563 123.496,168.688 211.76,168.688 				"/>
			</g>
			<circle fill="#666666" cx="167.967" cy="151.036" r="9.166"/>
			<rect x="-20.102" y="-96.34" fill="#C7FAFF" width="375.459" height="214.549"/>
		</g>
	</g>
</g>
<g id="Layer_5" display="none">
	<path display="inline" fill="#DDBB92" d="M192.07,30.906H14.841c-11.046,0-20,8.955-20,20v188.473c0,11.047,8.954,20,20,20H192.07
		c11.046,0,20-8.953,20-20V50.906C212.07,39.861,203.116,30.906,192.07,30.906z M46.336,200.988c-8.302,0-15.031-6.73-15.031-15.031
		s6.729-15.031,15.031-15.031c8.301,0,15.031,6.73,15.031,15.031S54.637,200.988,46.336,200.988z M46.336,150.998
		c-8.302,0-15.031-6.729-15.031-15.029c0-8.303,6.729-15.033,15.031-15.033c8.301,0,15.031,6.73,15.031,15.033
		C61.367,144.269,54.637,150.998,46.336,150.998z M46.336,98.988c-8.302,0-15.031-6.73-15.031-15.031s6.729-15.031,15.031-15.031
		c8.301,0,15.031,6.73,15.031,15.031S54.637,98.988,46.336,98.988z M103.169,200.988c-8.302,0-15.03-6.73-15.03-15.031
		s6.729-15.031,15.03-15.031s15.031,6.73,15.031,15.031S111.471,200.988,103.169,200.988z M103.169,150.998
		c-8.302,0-15.03-6.729-15.03-15.029c0-8.303,6.729-15.033,15.03-15.033s15.031,6.73,15.031,15.033
		C118.2,144.269,111.471,150.998,103.169,150.998z M103.169,98.988c-8.302,0-15.03-6.73-15.03-15.031s6.729-15.031,15.03-15.031
		s15.031,6.73,15.031,15.031S111.471,98.988,103.169,98.988z M160.575,200.988c-8.302,0-15.031-6.73-15.031-15.031
		s6.729-15.031,15.031-15.031s15.031,6.73,15.031,15.031S168.877,200.988,160.575,200.988z M160.575,150.998
		c-8.302,0-15.031-6.729-15.031-15.029c0-8.303,6.729-15.033,15.031-15.033s15.031,6.73,15.031,15.033
		C175.606,144.269,168.877,150.998,160.575,150.998z M160.575,98.988c-8.302,0-15.031-6.73-15.031-15.031
		s6.729-15.031,15.031-15.031s15.031,6.73,15.031,15.031S168.877,98.988,160.575,98.988z"/>
</g>
<g id="Layer_6" display="none">
	<g display="inline">
		<ellipse fill="#663428" cx="92.174" cy="156.249" rx="40.333" ry="12.974"/>
		<g>
			<path fill="#FFFFFF" d="M117.785,94.107v51.334c0,5.522-4.477,10-10,10H74.451c-5.522,0-10-4.478-10-10V94.107"/>
			<path fill="none" stroke="#FFFFFF" stroke-width="6" stroke-miterlimit="10" d="M130.508,126.941c0,5.522-4.477,10-10,10h-9.667
				c-5.522,0-10-4.478-10-10v-4.333c0-5.522,4.478-10,10-10h9.667c5.523,0,10,4.478,10,10V126.941z"/>
		</g>
	</g>
</g>
<g id="Layer_7" display="none">
	<g display="inline">
		<rect x="53.6" y="66.069" fill="#913C96" width="24.909" height="111.374"/>
		<g>
			<rect x="78.509" y="154.512" fill="#CCC246" width="86.832" height="22.896"/>
			<rect x="78.509" y="147.818" fill="#9B9B9B" width="74.335" height="6.711"/>
			<g>
				<rect x="39.6" y="83.734" fill="#73964B" width="14.666" height="93.709"/>
				<g>
					<path fill="#71931D" d="M90.424,82.235c0,0-2.814-12.068,4.667-10.519c3.917,0.812,3.333,5.137,3.333,5.137
						s-4.021-16.236,1.75-16.825c6.521-0.666,6.917,11.688,6.917,11.688s-4.914-22.814,5.167-23.187c9.625-0.355,8,13.499,8,13.499
						s4.333-6.75,6.166-2.461c1.886,4.413-2.333,12.148-2.333,12.148s4.667-9.534,10.167-6.36s-0.667,16.879-0.667,16.879"/>
					<rect x="-18.831" y="103.295" fill="#CC2929" width="29.333" height="74.147"/>
					<rect x="10.502" y="73.072" fill="#E2E2E2" width="29.334" height="104.371"/>
					<rect x="78.508" y="133.551" fill="#934916" width="93.335" height="15.111"/>
					<rect x="78.508" y="118.44" fill="#3D3D3D" width="80.583" height="15.111"/>
					<rect x="-33.498" y="63.068" fill="#52A8E2" width="14.667" height="114.375"/>
					<rect x="-18.659" y="110.234" fill="#DDD466" width="29.161" height="15.023"/>
					<rect x="15.794" y="151.984" fill="#6D6D6D" width="18.75" height="20.04"/>
					<rect x="53.6" y="103.295" fill="#7BAAAF" width="24.909" height="37.073"/>
					<rect x="53.6" y="70.629" fill="#DDD466" width="24.909" height="8.439"/>
					<rect x="85.508" y="154.507" fill="#BF4773" width="10.5" height="22.936"/>
					<polygon fill="#3F2213" points="90.758,86.612 96.008,118.537 129.258,118.537 134.258,86.612 					"/>
					<rect x="88.008" y="79.695" fill="#683B28" width="49" height="9.251"/>
				</g>
			</g>
		</g>
	</g>
</g>
<g id="Layer_8" display="none">
	<g display="inline">
		<g>
			
				<rect x="84.756" y="74.237" transform="matrix(0.9761 -0.2172 0.2172 0.9761 -14.9113 20.8218)" fill="#515151" width="4.999" height="8"/>
			<polygon fill="#515151" points="98.297,146.61 104.128,154.392 106.104,144.873 104.392,137.173 96.583,138.91 			"/>
			
				<rect x="90.788" y="78.336" transform="matrix(0.9761 -0.2172 0.2172 0.9761 -22.1608 23.2724)" fill="#E8D885" width="7.999" height="68.221"/>
			
				<rect x="93.146" y="85.403" transform="matrix(0.9761 -0.2174 0.2174 0.9761 -19.1599 23.1492)" fill="#515151" width="5" height="26.528"/>
		</g>
		<g>
			
				<rect x="100.918" y="140.73" transform="matrix(-0.9353 -0.3538 0.3538 -0.9353 148.9447 316.6879)" fill="#515151" width="4.999" height="8.001"/>
			<polygon fill="#515151" points="131.701,81.511 131.095,71.807 124.222,78.68 122.776,86.567 127.556,88.376 			"/>
			
				<rect x="111.893" y="77.888" transform="matrix(-0.9352 -0.354 0.354 -0.9352 184.6314 257.7702)" fill="#E8D885" width="7.997" height="68.22"/>
			
				<rect x="105.111" y="109.783" transform="matrix(-0.9353 -0.3539 0.3539 -0.9353 164.7149 276.2132)" fill="#515151" width="5" height="26.527"/>
		</g>
		<g>
			
				<rect x="100.162" y="52.75" transform="matrix(0.9991 -0.0412 0.0412 0.9991 -2.2522 4.2804)" fill="#515151" width="4.998" height="7.999"/>
			<polygon fill="#515151" points="101.444,125.997 105.81,134.687 109.437,125.667 109.112,117.786 101.118,118.114 			"/>
			
				<rect x="100.029" y="57.641" transform="matrix(0.9991 -0.0413 0.0413 0.9991 -3.6975 4.3709)" fill="#E8D885" width="7.999" height="68.221"/>
			
				<rect x="104.809" y="65.076" transform="matrix(0.9992 -0.0412 0.0412 0.9992 -3.1371 4.4885)" fill="#515151" width="5" height="26.528"/>
		</g>
		<rect x="78.512" y="102.715" fill="#97AED3" width="51.5" height="76.365"/>
	</g>
</g>
<g id="Layer_9">
	<g>
		<path fill-rule="evenodd" clip-rule="evenodd" fill="#E9E9E9" d="M273.243,164.154H31.771L0,211.344
			c0,7.018-0.155,12.708,12.467,12.708h285.295c9.5,0,7.254-12.708,7.254-12.708L273.243,164.154z"/>
		<g>
			<path fill-rule="evenodd" clip-rule="evenodd" fill="#3D3D3D" d="M155.685,164.154H31.771V8.474C31.771,3.793,35.564,0,40.244,0
				h115.44h109.087c4.68,0,8.472,3.793,8.472,8.474v155.681H155.685z"/>
			<path fill-rule="evenodd" clip-rule="evenodd" fill="#E9E9E9" d="M156.225,2.221c1.099,0,1.99,0.89,1.99,1.987
				c0,1.099-0.892,1.989-1.99,1.989c-1.098,0-1.988-0.891-1.988-1.989C154.236,3.11,155.127,2.221,156.225,2.221z"/>
			<path fill-rule="evenodd" clip-rule="evenodd" fill="#777777" d="M38.125,155.682V8.474h228.766v147.208H38.125z"/>
			<path fill-rule="evenodd" clip-rule="evenodd" fill="#B3B2B2" d="M173.693,211.344c0,2.339-1.939,4.236-4.331,4.236h-33.708
				c-2.391,0-4.33-1.897-4.33-4.236H173.693z"/>
		</g>
		<polyline fill-rule="evenodd" clip-rule="evenodd" fill="#B3B2B2" points="36.452,170.573 15.375,202.665 289.512,202.665 
			270.854,171.323 		"/>
	</g>
</g>
</svg>
