<?xml version="1.0" encoding="utf-8"?>
<!-- Generator: Adobe Illustrator 16.0.0, SVG Export Plug-In . SVG Version: 6.00 Build 0)  -->
<!DOCTYPE svg PUBLIC "-//W3C//DTD SVG 1.1//EN" "http://www.w3.org/Graphics/SVG/1.1/DTD/svg11.dtd">
<svg version="1.1" id="laptop" xmlns="http://www.w3.org/2000/svg" xmlns:xlink="http://www.w3.org/1999/xlink" x="0px" y="0px"
	 width="305.247px" height="224.051px" viewBox="0 0 305.247 224.051" enable-background="new 0 0 305.247 224.051"
	 xml:space="preserve">
<path fill="#E9E9E9" d="M273.243,164.154H31.771L0,211.344c0,7.018-0.155,12.707,12.467,12.707h285.295
	c9.5,0,7.254-12.707,7.254-12.707L273.243,164.154z"/>
<path fill="#3D3D3D" d="M155.685,164.154H31.771V8.474C31.771,3.793,35.564,0,40.244,0h115.44h109.087
	c4.681,0,8.472,3.793,8.472,8.474v155.681L155.685,164.154L155.685,164.154z"/>
<path fill="#E9E9E9" d="M156.225,2.221c1.1,0,1.99,0.89,1.99,1.987c0,1.099-0.893,1.989-1.99,1.989s-1.988-0.891-1.988-1.989
	C154.236,3.11,155.127,2.221,156.225,2.221z"/>
<path fill="#777777" d="M38.125,155.682V8.474h228.766v147.208H38.125z"/>
<path fill="#B3B2B2" d="M173.693,211.344c0,2.339-1.938,4.236-4.331,4.236h-33.708c-2.391,0-4.33-1.897-4.33-4.236H173.693z"/>
<polyline fill="#B3B2B2" points="36.452,170.573 15.375,202.665 289.512,202.665 270.854,171.323 "/>
</svg>
