<?xml version="1.0" encoding="utf-8"?>
<!-- Generator: Adobe Illustrator 16.0.0, SVG Export Plug-In . SVG Version: 6.00 Build 0)  -->
<!DOCTYPE svg PUBLIC "-//W3C//DTD SVG 1.1//EN" "http://www.w3.org/Graphics/SVG/1.1/DTD/svg11.dtd">
<svg version="1.1" id="Layer_1" xmlns="http://www.w3.org/2000/svg" xmlns:xlink="http://www.w3.org/1999/xlink" x="0px" y="0px"
	 width="53.189px" height="126.426px" viewBox="0 0 53.189 126.426" enable-background="new 0 0 53.189 126.426"
	 xml:space="preserve">
<rect x="6.244" y="21.588" transform="matrix(-0.9761 0.2172 -0.2172 -0.9761 22.8372 48.665)" fill="#515151" width="4.999" height="8"/>
<polygon fill="#515151" points="19.785,93.961 25.616,101.742 27.593,92.225 25.88,84.523 18.071,86.261 "/>
<rect x="12.276" y="25.686" transform="matrix(-0.9761 0.2172 -0.2172 -0.9761 45.1495 114.6293)" fill="#E8D885" width="7.999" height="68.219"/>
<rect x="14.637" y="32.754" transform="matrix(-0.9761 0.2174 -0.2174 -0.9761 43.8686 87.2093)" fill="#515151" width="4.999" height="26.529"/>
<rect x="22.41" y="88.083" transform="matrix(0.9353 0.3538 -0.3538 0.9353 34.1877 -2.8574)" fill="#515151" width="4.999" height="8.001"/>
<polygon fill="#515151" points="53.189,28.861 52.583,19.157 45.71,26.03 44.265,33.918 49.044,35.727 "/>
<rect x="33.383" y="25.244" transform="matrix(0.9352 0.354 -0.354 0.9352 23.4312 -9.3899)" fill="#E8D885" width="7.997" height="68.217"/>
<rect x="26.601" y="57.133" transform="matrix(0.9353 0.3539 -0.3539 0.9353 26.7953 -5.7431)" fill="#515151" width="5" height="26.527"/>
<rect x="21.649" y="0.102" transform="matrix(-0.9991 0.0412 -0.0412 -0.9991 48.444 7.2025)" fill="#515151" width="4.997" height="7.999"/>
<polygon fill="#515151" points="22.933,73.348 27.298,82.037 30.925,73.018 30.601,65.137 22.606,65.465 "/>
<rect x="21.517" y="4.99" transform="matrix(-0.9991 0.0413 -0.0413 -0.9991 52.6277 77.1098)" fill="#E8D885" width="7.999" height="68.218"/>
<rect x="26.298" y="12.428" transform="matrix(-0.9992 0.0412 -0.0412 -0.9992 58.6305 50.1762)" fill="#515151" width="5" height="26.529"/>
<rect x="0" y="50.065" fill="#97AED3" width="51.5" height="76.365"/>
</svg>
