<?xml version="1.0" encoding="utf-8"?>
<!-- Generator: Adobe Illustrator 16.0.0, SVG Export Plug-In . SVG Version: 6.00 Build 0)  -->
<!DOCTYPE svg PUBLIC "-//W3C//DTD SVG 1.1//EN" "http://www.w3.org/Graphics/SVG/1.1/DTD/svg11.dtd">
<svg version="1.1" xmlns="http://www.w3.org/2000/svg" xmlns:xlink="http://www.w3.org/1999/xlink" x="0px" y="0px"
	 width="53.189px" height="126.426px" viewBox="0 0 53.189 126.426" enable-background="new 0 0 53.189 126.426"
	 xml:space="preserve">
<g id="Layer_1" display="none">
	<g id="fish" display="inline">
		<path opacity="0.7" fill="#A7EAE6" d="M-368.236,19.733c0-18.458-8.595-34.897-21.988-45.57h-72.523
			c-13.394,10.673-21.988,27.112-21.988,45.57c0,23.352,13.746,43.482,33.583,52.771v6.708h49.333v-6.708
			C-381.983,63.216-368.236,43.084-368.236,19.733z"/>
		<path fill="#D87A1D" d="M-393.19,25.249l-7.207,4.19c-2.544-8.5-12.403-8.504-12.403-8.504s-14.027-0.178-14.027,13.313
			c0,11.78,13.513,10.996,13.513,10.996s9.507-0.188,12.571-6.852l7.554,4.855V25.249z"/>
		<circle fill="#FFFFFF" cx="-446.833" cy="18.302" r="3.689"/>
		<circle fill="#FFFFFF" cx="-439.454" cy="26.687" r="3.689"/>
		<circle fill="#FFFFFF" cx="-439.454" cy="7.498" r="3.689"/>
		<circle fill="#FFFFFF" cx="-446.833" cy="-3.924" r="3.689"/>
	</g>
</g>
<g id="Layer_2" display="none">
	<g display="inline">
		<polygon fill-rule="evenodd" clip-rule="evenodd" fill="#4BA358" points="-360.428,-18.072 -346.731,37.009 -408.064,39.613 
			-406.865,43.165 -424.028,45.009 -424.028,41.676 -484.736,45.676 -479.397,-10.246 -457.188,-16.37 -418.736,-10.246 
			-382.397,-21.711 		"/>
		<g>
			<path fill="#D6D6D6" d="M-369.486-22.976c0,0-21.861-9.209-51.114,5.412c-31.004-10.404-50.918,1.729-50.918,1.729l-6.292,55.448
				c0,0,44.103-19.023,61.071-4.273c14.75-16.97,61.205-4.283,61.205-4.283L-369.486-22.976z"/>
			<path fill="#808285" d="M-372.062-18.942l3.089,13.334c0,0-30.62-6.559-50.126,5.297l-0.914-13.059
				C-390.76-27.992-372.062-18.942-372.062-18.942z"/>
			<path fill="#808285" d="M-393.129-3.003l1.549,13.822c0,0-12.059-0.367-26.237,6.166l-0.991-13.155
				C-406.694-3.913-393.129-3.003-393.129-3.003z"/>
		</g>
	</g>
</g>
<g id="Layer_3" display="none">
	<g display="inline">
		<rect x="-906.693" y="-96.614" fill="#C64934" width="1566" height="120.81"/>
		<rect x="-907.07" y="23.377" fill="#8C3625" width="1566" height="31.412"/>
	</g>
</g>
<g id="Layer_4" display="none">
	<g display="inline">
		<path fill="#FFFFFF" d="M276.537,194.129c1.637,7.84-3.391,15.521-11.229,17.159l0,0c-7.84,1.638-14.379-3.108-17.158-11.228
			l-6.512-13.544c-1.637-7.838,3.389-15.521,11.229-17.159l0,0c7.838-1.638,12.832,3.572,17.158,11.228L276.537,194.129z"/>
		<path fill="none" stroke="#FFFFFF" stroke-width="3" stroke-miterlimit="10" d="M250.93,175.013c0,0-2.455-16.322-13.666-16.322
			c0,0-12.834,2.498-27,1.655c-8.979-0.534-30.887-1.26-37.813-11.707c-9.333-14.076-43.021-2.726-43.021-2.726"/>
		<polygon fill="#D6D6D6" points="-23.385,179.703 -31.951,226.025 223.857,226.025 214.422,179.703 		"/>
		<g>
			<path d="M278.545-162.909H-100.65c-6.75,0-12.222,5.472-12.222,12.222v253.929c0,6.748,5.472,12.221,12.222,12.221h379.195
				c6.748,0,12.221-5.473,12.221-12.221v-253.929C290.766-157.437,285.293-162.909,278.545-162.909z M276.846,65.559H-98.613
				V-148.99h375.459V65.559z"/>
			<path fill="#777777" d="M-112.872,79.036v24.782c0,6.749,5.472,12.221,12.222,12.221h379.195c6.748,0,12.221-5.472,12.221-12.221
				V79.036H-112.872z"/>
			<g>
				<rect x="23.598" y="161.189" fill="#666666" width="130.697" height="3.734"/>
				<polygon fill="#AAAAAA" points="154.295,161.189 23.938,161.189 41.25,145.914 136.643,145.914 				"/>
				<polygon fill="#888888" points="136.643,145.914 41.25,145.914 44.984,116.039 133.248,116.039 				"/>
			</g>
			<circle fill="#666666" cx="89.456" cy="98.386" r="9.166"/>
			<rect x="-98.613" y="-148.99" fill="#C7FAFF" width="375.459" height="214.549"/>
		</g>
	</g>
</g>
<g id="Layer_5" display="none">
	<path display="inline" fill="#DDBB92" d="M113.559-21.744H-63.671c-11.046,0-20,8.955-20,20v188.473c0,11.047,8.954,20,20,20
		h177.229c11.046,0,20-8.953,20-20V-1.744C133.559-12.789,124.604-21.744,113.559-21.744z M-32.176,148.338
		c-8.302,0-15.031-6.73-15.031-15.031s6.729-15.031,15.031-15.031c8.301,0,15.031,6.73,15.031,15.031
		S-23.875,148.338-32.176,148.338z M-32.176,98.348c-8.302,0-15.031-6.729-15.031-15.029c0-8.303,6.729-15.033,15.031-15.033
		c8.301,0,15.031,6.73,15.031,15.033C-17.145,91.62-23.875,98.348-32.176,98.348z M-32.176,46.338
		c-8.302,0-15.031-6.73-15.031-15.031s6.729-15.031,15.031-15.031c8.301,0,15.031,6.73,15.031,15.031S-23.875,46.338-32.176,46.338z
		 M24.657,148.338c-8.302,0-15.03-6.73-15.03-15.031s6.729-15.031,15.03-15.031s15.031,6.73,15.031,15.031
		S32.959,148.338,24.657,148.338z M24.657,98.348c-8.302,0-15.03-6.729-15.03-15.029c0-8.303,6.729-15.033,15.03-15.033
		s15.031,6.73,15.031,15.033C39.688,91.62,32.959,98.348,24.657,98.348z M24.657,46.338c-8.302,0-15.03-6.73-15.03-15.031
		s6.729-15.031,15.03-15.031s15.031,6.73,15.031,15.031S32.959,46.338,24.657,46.338z M82.063,148.338
		c-8.302,0-15.031-6.73-15.031-15.031s6.729-15.031,15.031-15.031s15.031,6.73,15.031,15.031S90.365,148.338,82.063,148.338z
		 M82.063,98.348c-8.302,0-15.031-6.729-15.031-15.029c0-8.303,6.729-15.033,15.031-15.033s15.031,6.73,15.031,15.033
		C97.095,91.62,90.365,98.348,82.063,98.348z M82.063,46.338c-8.302,0-15.031-6.73-15.031-15.031s6.729-15.031,15.031-15.031
		s15.031,6.73,15.031,15.031S90.365,46.338,82.063,46.338z"/>
</g>
<g id="Layer_6" display="none">
	<g display="inline">
		<ellipse fill="#663428" cx="13.663" cy="103.599" rx="40.333" ry="12.974"/>
		<g>
			<path fill="#FFFFFF" d="M39.273,41.458v51.334c0,5.522-4.477,10-10,10H-4.061c-5.522,0-10-4.478-10-10V41.458"/>
			<path fill="none" stroke="#FFFFFF" stroke-width="6" stroke-miterlimit="10" d="M51.996,74.292c0,5.522-4.477,10-10,10h-9.667
				c-5.522,0-10-4.478-10-10v-4.333c0-5.522,4.478-10,10-10h9.667c5.523,0,10,4.478,10,10V74.292z"/>
		</g>
	</g>
</g>
<g id="Layer_7" display="none">
	<g display="inline">
		<rect x="-24.912" y="13.419" fill="#913C96" width="24.909" height="111.374"/>
		<g>
			<rect x="-0.003" y="101.863" fill="#CCC246" width="86.832" height="22.896"/>
			<rect x="-0.003" y="95.168" fill="#9B9B9B" width="74.335" height="6.711"/>
			<g>
				<rect x="-38.912" y="31.084" fill="#73964B" width="14.666" height="93.709"/>
				<g>
					<path fill="#71931D" d="M11.912,29.585c0,0-2.814-12.068,4.667-10.519c3.917,0.812,3.333,5.137,3.333,5.137
						s-4.021-16.236,1.75-16.825c6.521-0.666,6.917,11.688,6.917,11.688S23.665-3.748,33.746-4.12c9.625-0.355,8,13.499,8,13.499
						s4.333-6.75,6.166-2.461c1.886,4.413-2.333,12.148-2.333,12.148s4.667-9.534,10.167-6.36s-0.667,16.879-0.667,16.879"/>
					<rect x="-97.343" y="50.646" fill="#CC2929" width="29.333" height="74.147"/>
					<rect x="-68.01" y="20.422" fill="#E2E2E2" width="29.334" height="104.371"/>
					<rect x="-0.004" y="80.902" fill="#934916" width="93.335" height="15.111"/>
					<rect x="-0.004" y="65.791" fill="#3D3D3D" width="80.583" height="15.111"/>
					<rect x="-112.01" y="10.418" fill="#52A8E2" width="14.667" height="114.375"/>
					<rect x="-97.171" y="57.584" fill="#DDD466" width="29.161" height="15.023"/>
					<rect x="-62.718" y="99.334" fill="#6D6D6D" width="18.75" height="20.04"/>
					<rect x="-24.912" y="50.646" fill="#7BAAAF" width="24.909" height="37.073"/>
					<rect x="-24.912" y="17.98" fill="#DDD466" width="24.909" height="8.439"/>
					<rect x="6.996" y="101.858" fill="#BF4773" width="10.5" height="22.936"/>
					<polygon fill="#3F2213" points="12.246,33.962 17.496,65.887 50.746,65.887 55.746,33.962 					"/>
					<rect x="9.496" y="27.045" fill="#683B28" width="49" height="9.251"/>
				</g>
			</g>
		</g>
	</g>
</g>
<g id="Layer_8">
	<g>
		<g>
			
				<rect x="6.245" y="21.588" transform="matrix(0.9761 -0.2172 0.2172 0.9761 -5.3494 2.5104)" fill="#515151" width="4.999" height="8"/>
			<polygon fill="#515151" points="19.785,93.961 25.616,101.742 27.593,92.224 25.88,84.523 18.071,86.261 			"/>
			
				<rect x="12.276" y="25.687" transform="matrix(0.9761 -0.2172 0.2172 0.9761 -12.5996 4.9626)" fill="#E8D885" width="7.999" height="68.221"/>
			
				<rect x="14.635" y="32.754" transform="matrix(0.9761 -0.2174 0.2174 0.9761 -9.5929 4.8248)" fill="#515151" width="5" height="26.528"/>
		</g>
		<g>
			
				<rect x="22.406" y="88.081" transform="matrix(-0.9353 -0.3538 0.3538 -0.9353 15.6247 187.0183)" fill="#515151" width="4.999" height="8.001"/>
			<polygon fill="#515151" points="53.189,28.861 52.583,19.157 45.71,26.03 44.265,33.918 49.044,35.727 			"/>
			
				<rect x="33.381" y="25.239" transform="matrix(-0.9352 -0.354 0.354 -0.9352 51.3297 128.0876)" fill="#E8D885" width="7.997" height="68.22"/>
			
				<rect x="26.599" y="57.134" transform="matrix(-0.9353 -0.3539 0.3539 -0.9353 31.4037 146.5373)" fill="#515151" width="5" height="26.527"/>
		</g>
		<g>
			
				<rect x="21.65" y="0.101" transform="matrix(0.9991 -0.0412 0.0412 0.9991 -0.1485 0.999)" fill="#515151" width="4.998" height="7.999"/>
			<polygon fill="#515151" points="22.933,73.348 27.298,82.037 30.925,73.018 30.601,65.137 22.606,65.465 			"/>
			
				<rect x="21.517" y="4.991" transform="matrix(0.9991 -0.0413 0.0413 0.9991 -1.5918 1.0862)" fill="#E8D885" width="7.999" height="68.221"/>
			
				<rect x="26.297" y="12.427" transform="matrix(0.9992 -0.0412 0.0412 0.9992 -1.0342 1.2085)" fill="#515151" width="5" height="26.528"/>
		</g>
		<rect y="50.065" fill="#97AED3" width="51.5" height="76.365"/>
	</g>
</g>
</svg>
